<svg width="1867" height="1614" xmlns="http://www.w3.org/2000/svg" xmlns:xlink="http://www.w3.org/1999/xlink" overflow="hidden"><defs><clipPath id="clip0"><rect x="1265" y="432" width="1867" height="1614"/></clipPath></defs><g clip-path="url(#clip0)" transform="translate(-1265 -432)"><path d="M439.278 980.286C390.019 972.88 375.498 969.747 349.872 961.486 335.92 956.929 322.823 953.226 320.829 953.226 317.697 953.226 296.627 944.395 268.723 931.008 229.715 912.777 169.921 868.626 136.607 833.59 11.609 702.275-31.6704 524.246 18.7271 347.925 31.8248 301.495 64.5694 236.835 96.7443 192.968 127.495 151.381 189.567 95.2657 234.27 68.2056 293.78 32.3147 367.241 8.67241 444.403 0.69656 485.69-3.57615 490.246-3.57615 536.087 1.83617 612.111 10.9512 671.621 30.3207 731.13 65.3568 789.785 99.8237 829.363 134.86 875.775 193.253 897.984 221.168 928.735 276.429 944.111 317.162 951.229 335.107 962.049 376.125 968.028 404.895 974.862 439.076 974.862 538.488 968.028 574.379 954.361 647.015 929.589 707.972 889.726 768.075 863.246 807.953 809.716 862.644 769.569 891.414 733.977 916.765 658.808 953.795 626.063 962.056 575.665 974.874 519.003 983.134 522.705 976.868 523.844 975.159 531.816 973.165 540.358 972.31 568.547 969.462 582.214 953.51 576.235 931.577 571.679 915.911 561.429 909.359 540.643 908.504 522.705 907.935 519.003 905.371 519.003 892.838 519.003 884.862 512.455 876.317 506.475 876.317 504.482 876.317 500.781 878.026 498.218 880.02 493.662 883.153 493.377 886.002 496.225 909.074 497.934 923.317 500.496 942.686 501.635 952.086 502.774 961.771 505.336 971.741 507.329 974.304 509.607 976.868 510.461 980.001 509.323 981.141 505.621 984.844 466.613 984.274 439.278 980.286ZM428.174 966.898C431.875 961.201 445.258 901.668 445.827 889.42 446.396 878.311 445.827 877.741 437.57 876.887 429.598 876.032 428.458 877.172 423.618 888.281L418.493 900.529 416.785 887.141C414.791 872.329 412.798 869.481 403.117 866.632 396.568 864.638 388.311 870.905 380.338 883.723 377.491 888.281 376.922 887.426 376.922 875.747 376.637 861.505 370.373 854.668 361.262 858.087 356.991 859.796 355.567 863.214 346.455 900.529 344.178 909.929 341.045 922.177 339.337 927.874 334.212 947.814 335.636 952.656 346.74 954.935 361.546 957.783 370.373 954.365 375.213 943.826 383.471 926.735 388.311 919.044 391.159 919.044 392.582 919.044 393.721 928.159 393.721 938.983 393.721 956.929 394.575 960.062 401.124 966.613 406.819 972.31 409.951 973.45 417.354 972.026 422.194 971.171 427.035 968.892 428.174 966.898ZM684.718 929.298C709.49 916.48 714.615 911.353 711.768 903.662 709.206 897.111 700.378 897.965 682.44 906.51 654.252 919.899 648.842 906.226 676.461 891.984 690.413 884.577 692.691 882.299 692.122 876.317 690.982 866.632 684.149 866.062 665.926 873.753 648.557 880.874 641.439 879.735 641.439 869.765 641.439 864.353 645.141 861.505 659.946 854.099 669.912 848.971 679.023 843.559 679.878 842.135 683.01 837.008 678.169 827.893 671.051 826.184 667.35 825.329 664.787 823.62 665.641 822.481 666.21 821.342 676.176 815.644 687.565 809.663 698.955 803.681 710.344 796.844 712.907 794.851 715.185 792.572 719.74 790.863 722.873 790.863 729.421 790.863 772.416 833.02 772.416 839.572 772.416 842.135 769.854 846.408 766.721 849.257 756.756 858.087 760.458 870.62 772.985 870.62 778.111 870.62 823.668 824.19 823.668 819.063 823.668 811.372 815.695 806.245 810.001 810.232 793.771 821.911 793.486 821.626 772.131 800.548 743.943 772.917 743.943 772.633 757.61 758.39 797.473 716.803 834.203 641.318 849.863 567.258 860.968 514.561 856.982 414.865 841.891 381.537 839.613 376.695 837.905 371.567 837.905 370.144 837.905 362.737 811.71 307.477 800.605 292.095 797.757 287.822 795.195 283.55 795.195 282.695 795.195 278.992 768.714 246.805 750.776 228.575 693.545 171.035 630.049 138.278 543.206 121.187 521.566 116.915 464.62 116.915 435.007 121.187 401.124 126.314 357.275 137.423 335.35 146.823 315.419 155.654 267.584 179.581 259.042 185.563 239.68 198.381 237.117 199.235 234.84 192.968 231.423 183.854 179.886 132.581 175.046 133.435 172.768 134.005 169.351 136.569 167.927 139.132 163.372 146.253 168.212 153.375 198.678 185.277L225.159 212.908 219.179 218.605C210.922 226.296 209.498 225.441 207.22 213.478 204.943 199.235 200.956 194.393 188.428 189.835 175.33 185.277 165.934 187.557 153.121 198.95 142.301 208.065 139.739 208.065 125.502 197.811 121.8 194.962 118.953 194.962 115.536 197.241 104.716 204.077 107.849 210.914 130.912 229.714 143.155 239.684 155.968 250.792 159.385 254.496 162.802 258.199 169.067 261.047 173.052 261.047 182.164 261.047 182.164 264.465 171.914 280.701 167.643 288.107 162.802 297.223 161.663 301.211 160.525 304.913 156.538 313.743 152.837 320.865 137.176 350.774 122.086 406.889 117.245 452.749 106.994 550.452 137.746 651.003 201.811 729.621 208.644 738.166 214.339 746.712 214.339 748.706 214.339 750.699 200.102 766.366 183.018 783.172 152.552 813.081 147.996 820.202 155.114 827.323 162.517 834.729 170.49 830.457 192.984 807.953 205.512 795.42 216.902 785.166 218.61 785.166 220.319 785.166 226.298 789.723 231.708 795.42 244.805 809.093 249.93 811.657 257.334 807.953 261.889 805.39 262.743 802.826 261.605 797.699 260.466 793.996 260.75 790.863 262.174 790.863 264.452 790.863 307.162 817.069 313.141 822.196 315.135 823.62 317.697 825.044 318.836 825.044 320.829 825.044 338.198 831.881 373.22 846.693 378.346 848.971 385.464 850.68 388.88 850.68 392.297 850.68 400.839 852.959 407.957 855.523 427.604 862.644 537.511 862.644 567.408 855.523 593.319 848.971 615.244 842.705 622.931 839.287 634.89 833.59 656.245 827.608 657.954 829.032 658.808 829.887 657.384 830.741 654.821 830.741 652.543 830.741 648.557 832.451 646.564 834.444 644.571 836.438 636.599 841.281 628.626 845.269 620.938 849.541 613.25 854.668 611.827 857.232 609.833 860.366 612.965 870.335 624.355 895.117 641.724 932.432 647.988 941.832 655.675 941.832 658.808 941.832 671.621 936.135 684.718 929.298ZM274.702 911.353C277.265 908.504 282.675 899.959 286.661 891.984 290.932 884.293 299.474 868.911 305.453 858.087 317.982 836.438 318.552 825.044 307.162 825.044 298.051 825.044 296.342 826.753 274.702 863.499 253.632 899.105 250.785 908.22 259.327 913.062 266.445 917.335 269.862 916.765 274.702 911.353ZM110.981 430.246C114.398 421.131 107.279 416.289 81.6534 410.592 67.7013 407.458 54.6036 403.756 52.3258 402.331 49.4786 400.337 48.9088 395.78 50.3326 383.246 51.7564 368.434 51.1866 366.156 46.0616 363.592 42.0753 361.313 39.2281 361.313 36.6656 363.307 32.6793 366.725 25.276 404.61 26.9845 414.865 27.8385 422.27 32.3946 423.98 67.7013 430.531 96.7443 435.943 108.703 435.658 110.981 430.246ZM948.382 417.998C948.951 414.295 948.096 406.034 946.388 399.483 944.68 392.931 942.687 383.531 941.548 378.404 940.694 373.277 937.846 368.15 935.283 367.295 925.603 363.307 856.412 378.689 853.85 385.24 853.28 386.95 854.134 390.938 856.412 393.786 860.968 400.052 875.205 400.052 900.546 393.501 921.047 388.089 924.464 389.798 927.596 405.749 930.443 421.416 934.145 426.828 941.263 425.689 945.249 425.119 947.812 422.555 948.382 417.998ZM128.919 361.598C128.919 354.477 123.224 346.501 118.384 346.501 115.821 346.501 105.286 343.652 95.0358 340.519 54.6036 327.416 53.4645 327.132 48.3394 329.98 44.9225 331.689 43.4991 335.107 44.0684 339.95 44.9225 346.501 48.3394 348.21 80.5143 359.035 107.849 368.15 117.529 370.144 122.655 368.15 126.071 366.725 128.919 363.592 128.919 361.598ZM931.012 344.792C933.575 337.956 928.45 331.404 917.345 327.701 911.081 325.422 906.241 321.15 902.539 314.029 897.13 304.059 897.13 303.774 903.393 293.52 908.803 285.259 909.373 282.126 906.526 276.429 904.817 272.726 901.401 269.592 898.553 269.592 895.99 269.592 880.33 282.98 864.1 299.217 836.766 326.562 834.488 329.695 836.481 337.101 837.336 341.374 839.898 345.931 841.607 347.071 843.599 348.21 864.1 349.35 887.164 349.35 923.61 349.35 929.304 348.78 931.012 344.792ZM138.884 332.259C144.01 322.289 142.586 318.301 127.78 304.059 122.086 298.647 117.529 292.95 117.529 291.81 117.529 288.677 130.912 288.962 141.732 292.095 153.406 295.229 160.239 292.38 164.51 282.126 168.212 273.296 165.08 261.047 159.101 261.047 157.392 261.047 143.155 254.496 127.78 246.52 112.404 238.829 97.0289 232.562 93.6119 233.132 85.0699 234.271 83.6466 248.229 91.6188 252.502 100.445 257.059 99.0221 262.186 89.3409 260.192 80.2296 258.199 69.1251 264.465 69.1251 271.871 69.1251 274.435 72.5416 280.132 76.8126 284.405L84.7853 292.665 72.5416 292.095C59.1593 291.241 53.4645 294.944 56.0274 302.919 58.0206 309.471 116.106 340.519 126.641 340.519 132.62 340.804 135.468 338.525 138.884 332.259ZM840.183 288.392C847.586 284.689 852.426 277.853 856.128 266.174 857.267 262.471 861.538 261.047 875.489 260.477 889.726 259.907 893.428 258.484 894.282 254.78 895.706 246.805 884.601 238.259 872.358 238.259 843.884 238.259 834.773 229.714 852.141 219.174 856.982 216.611 861.538 211.768 862.392 208.92 864.385 202.938 858.975 195.532 852.426 195.532 846.732 195.532 783.805 237.69 783.805 241.677 783.805 247.089 804.876 278.423 813.133 285.544 822.529 293.235 829.078 294.089 840.183 288.392ZM788.076 220.599C792.063 218.89 795.195 216.041 795.195 214.617 795.195 208.92 785.798 201.229 778.965 201.229 768.714 201.229 761.881 196.672 758.749 187.271 755.047 177.017 762.166 163.914 775.548 157.078 786.653 151.096 796.334 153.375 802.598 163.06 808.862 172.174 804.591 177.872 795.195 172.745 789.785 169.896 787.792 170.181 783.236 175.023 777.542 180.435 777.542 180.72 788.931 192.399 794.91 198.666 802.598 204.077 805.73 204.077 808.862 204.077 816.265 198.95 821.675 192.968 830.786 182.999 831.641 180.72 829.363 171.605 826.515 158.787 814.557 142.836 803.737 137.138 765.867 117.484 720.025 163.344 741.38 199.52 748.783 212.053 764.729 223.447 775.833 223.732 778.396 224.017 784.09 222.593 788.076 220.599ZM257.049 181.86C257.049 180.435 265.306 173.314 275.556 165.908 285.807 158.502 294.064 151.381 294.064 150.526 294.064 149.387 298.905 147.108 304.884 145.114 325.385 138.848 353.858 124.605 355.851 119.763 358.983 111.787 353.004 106.375 326.524 92.7022 312.572 85.2964 301.182 77.8901 301.182 75.6114 301.182 73.3326 305.739 69.6295 311.148 67.0659 332.788 56.8114 336.774 42.5693 317.128 45.4176 300.044 47.9812 262.743 66.7812 262.743 72.7631 262.743 83.872 267.014 87.8599 291.502 100.393 305.453 107.23 316.843 114.635 316.843 116.915 316.843 119.193 313.141 122.326 308.586 123.751 304.03 125.459 298.905 129.447 296.911 132.581 295.203 136.284 290.932 138.563 286.946 138.563 283.244 138.563 274.418 142.55 267.3 147.393 259.896 152.805 252.778 155.654 250.216 154.799 243.097 151.951 244.805 147.678 257.049 139.132 270.431 130.017 274.133 122.042 267.014 116.915 261.32 112.642 256.195 114.066 243.951 123.466 233.416 131.441 229.715 131.726 226.013 124.605 222.881 118.908 226.582 114.351 245.09 101.817 255.91 94.4114 256.764 83.5872 246.799 82.1628 238.541 81.0237 194.407 111.502 194.407 118.338 194.407 121.187 198.678 129.163 203.804 135.999 209.214 142.836 218.895 156.508 225.444 166.478 236.263 182.429 238.541 184.138 247.368 184.138 252.778 184.138 257.049 182.999 257.049 181.86ZM721.164 171.32C726.574 165.053 722.303 157.932 706.927 147.678 698.955 142.836 692.691 137.138 692.691 135.714 692.691 129.163 701.518 130.017 714.9 137.423 729.991 145.969 738.248 145.399 738.248 135.714 738.248 131.726 733.692 127.169 723.727 121.187 709.206 112.072 706.927 106.375 716.039 100.678 719.74 98.1145 724.011 99.5385 735.401 106.66 752.2 117.199 756.756 117.769 761.027 110.363 764.729 103.242 761.596 100.108 733.692 82.7329 717.462 72.7631 710.914 69.9147 707.497 71.9082 705.219 73.6174 696.107 85.5812 687.281 98.6841 678.454 112.072 669.343 123.181 666.78 123.751 664.217 124.32 658.523 121.472 654.252 117.769L646.279 111.217 656.814 85.2964C668.773 55.3874 669.343 48.836 661.085 46.5572 651.12 43.9932 648.557 46.842 638.876 71.0539 626.348 101.817 623.216 105.236 609.264 101.248 597.021 97.8297 596.451 94.981 603.285 65.642 605.562 55.1026 607.271 41.9997 606.702 36.3026 605.847 27.4724 604.708 26.048 598.16 25.1937 591.895 24.3389 587.055 27.4724 575.096 38.5814 566.554 46.5572 558.866 53.1087 557.442 53.1087 556.304 53.1087 556.304 46.272 557.158 38.2966 559.151 20.921 556.588 15.2239 547.477 16.6483 542.067 17.2178 540.074 20.921 535.803 36.0178 532.956 46.272 530.393 58.5205 530.393 63.078 530.108 67.9208 528.4 76.751 526.122 83.0176 522.42 93.2718 522.42 94.6962 526.691 98.1145 536.372 105.236 546.338 102.102 558.012 88.9991 574.242 70.4843 577.374 71.0539 577.374 91.2783 577.374 108.939 577.659 109.223 594.458 115.205 623.5 125.175 665.641 144.83 682.725 155.938 715.469 177.587 715.754 177.587 721.164 171.32ZM401.978 107.514C405.68 103.811 408.242 94.4114 410.52 77.0358 412.514 63.078 415.076 45.7024 416.215 38.2966 419.347 20.3509 414.791 13.2299 403.972 18.357 399.131 20.3509 395.714 24.6236 394.86 30.036 393.436 36.5874 390.589 39.4357 381.762 42.8541 369.804 47.6964 361.831 45.7024 358.414 37.4418 356.136 31.4604 339.907 32.8843 335.92 39.1509 333.927 42.5693 334.496 45.1328 338.483 49.4055 341.33 52.5386 351.58 66.4964 360.976 80.1689 384.04 113.496 391.159 118.338 401.978 107.514ZM513.309 98.6841C517.58 96.4053 518.434 91.8479 518.719 69.6295 519.003 55.1026 519.858 38.0118 520.712 31.4604 522.705 18.357 517.865 12.0908 507.045 13.7995 501.635 14.3695 500.211 16.933 498.503 27.4724 495.086 50.8299 495.94 98.1145 499.927 99.5385 505.336 101.817 507.614 101.817 513.309 98.6841Z" fill="#0A6B3C" fill-rule="evenodd" transform="matrix(1 0 0 -1 1685 1416)"/><path d="M-0.0661634 48.0658C-3.78607 44.6645-2.06915 42.1138 6.51495 38.9958 13.9543 36.4451 15.0991 34.7445 15.0991 25.9584 15.0991 18.0224 17.102 13.7711 24.5414 7.25234 38.2758-5.50173 44.8574-6.06845 56.5887 4.41826 63.742 10.6536 69.751 13.2043 76.6182 13.2043 87.2053 13.2043 98.0784 21.9904 98.0784 30.4931 98.0784 37.2952 97.2202 37.579 66.6037 44.3811 40.5653 49.7659 3.65327 52.0333-0.0661634 48.0658Z" fill="#0A6B3C" fill-rule="evenodd" transform="matrix(1 0 0 -1 2166 642)"/><path d="M136.424 592.303C113.942 580.327 95.444 565.501 69.5469 538.415 31.4124 498.782 10.9221 465.138 2.95363 430.638L-1.59967 411.535 7.2224 395.853C17.7521 377.32 22.5904 373.614 45.3568 367.626 61.8629 363.35 69.5469 357.932 69.5469 349.664 69.5469 339.114 82.0682 317.73 92.5979 310.887 102.274 304.329 103.697 302.048 103.697 292.354 103.697 284.656 101.705 279.239 96.5821 273.821 81.7837 257.855 92.3134 217.082 117.357 194.557 123.618 188.855 130.448 181.442 132.155 178.02 133.863 174.884 135.855 150.649 136.709 122.992 137.847 87.3514 139.554 71.0997 142.685 63.1161 146.385 54.5625 146.669 49.43 144.393 36.885 140.977 18.0669 143.823 12.6493 161.468 3.52553 172.282-1.89154 187.649-4.17296 190.78-0.751303 191.634 0.103873 188.219 6.37659 183.381 13.505 173.989 27.7608 172.282 41.1618 179.681 47.149 182.242 49.43 185.942 55.4176 188.219 60.5501 190.78 66.5373 195.618 71.3847 201.594 73.9507 213.547 79.0827 216.108 82.5044 220.377 98.186 224.645 113.868 232.614 125.558 243.144 130.975 251.966 135.537 265.91 157.206 265.91 166.615 265.91 170.322 270.464 177.165 276.155 182.297 285.547 190.851 286.4 192.846 284.693 201.971 282.986 210.524 280.139 213.66 267.902 220.788 259.934 225.351 249.689 229.913 245.136 231.053 234.321 233.334 222.938 249.586 220.946 264.982 219.523 279.809 212.693 286.367 199.602 286.367 193.91 286.367 188.503 289.218 183.096 295.205 172.851 306.325 142.116 317.73 123.049 317.73 110.812 317.73 109.104 318.585 102.274 328.28 97.4362 335.693 95.1595 342.821 95.1595 351.66 95.1595 360.784 93.4519 365.916 88.8986 370.477 85.1989 374.184 80.6456 379.031 78.6535 381.597 76.6614 384.164 70.685 386.16 65.5626 386.16 54.1789 386.16 48.4875 392.147 50.7642 401.556 52.7563 409.254 57.0251 411.535 76.6614 415.242 103.982 420.089 104.266 420.089 111.665 406.973 115.365 400.13 120.203 394.713 122.195 394.713 127.602 394.713 130.163 404.692 127.887 416.667 126.179 425.791 126.748 426.647 134.717 429.783 141.547 432.349 144.393 436.056 147.807 446.035 150.084 453.163 156.63 463.713 162.037 469.7 170.005 478.539 173.705 480.25 183.096 480.25 197.895 480.25 203.301 482.531 203.301 489.089 203.301 492.51 201.309 494.506 197.61 494.506 190.211 494.506 184.519 504.77 189.357 510.473 193.626 515.605 204.44 515.605 208.993 510.188 210.985 507.906 213.547 501.634 214.4 496.502 215.539 491.37 218.1 487.378 220.377 487.378 225.784 487.378 227.776 509.047 222.938 517.601 221.231 521.307 218.954 530.431 217.815 538.415L216.108 552.956 203.301 553.811C196.472 554.381 189.073 556.092 187.08 557.803 184.234 560.084 181.958 557.518 177.689 547.538 171.143 532.142 166.59 529.576 154.637 534.423 147.807 537.274 146.385 539.555 146.954 545.543 147.523 551.245 151.223 554.951 162.89 560.939 189.357 575.195 192.203 590.877 169.72 597.15 154.637 601.141 152.361 600.856 136.424 592.303Z" fill="#0A6B3C" fill-rule="evenodd" transform="matrix(1 0 0 -1 1864 1231)"/><path d="M134.504 457.046C116.852 455.053 115.713 453.914 123.685 445.372 135.644 432.274 143.615 419.177 142.192 414.906 141.338 412.913 135.074 410.066 128.525 408.642 120.553 406.933 114.574 403.802 110.588 398.392 104.609 390.135 104.609 390.135 110.303 386.148 114.005 383.301 119.13 382.447 124.824 383.586 135.928 385.579 139.63 379.03 132.796 368.495 128.81 362.231 126.817 361.661 115.143 363.085 103.47 364.224 101.477 363.655 93.7892 355.397 89.2337 350.557 83.8238 342.3 81.546 337.46 78.9836 331.196 74.9974 327.494 69.588 326.355 56.4908 323.223 54.7824 320.091 54.7824 298.452L54.7824 278.236 40.5461 265.993C16.6296 245.207-2.16218 213.887-2.16218 194.241-2.16218 183.421-0.16909 179.15 10.935 165.198 21.4697 151.816 25.7406 148.684 34.2822 147.26 39.9768 146.406 51.0809 144.413 58.4839 142.989 66.1711 141.281 76.1366 140.142 80.4074 140.142 91.5115 140.142 95.213 132.739 91.2268 119.641 88.3797 110.246 88.949 107.968 98.6293 92.0226 108.879 75.5086 108.879 74.6542 104.609 66.3969 101.477 60.1328 100.338 49.3131 100.338 27.6738 100.338-8.20228 102.331-9.34095 126.247 10.8746 200.845 74.6542 243.553 166.906 243.838 265.138 243.838 283.361 242.13 307.848 240.137 319.522 235.011 348.564 223.338 386.718 218.213 392.128 212.803 397.538 201.984 397.538 187.463 392.413 172.088 387.003 166.678 389.28 159.845 404.656L154.15 417.753 165.539 427.719C172.088 433.414 177.213 439.962 177.213 442.809 177.213 453.06 156.998 459.893 134.504 457.046Z" fill="#0A6B3C" fill-rule="evenodd" transform="matrix(1 0 0 -1 2260 1193)"/><path d="M-0.48651 14.2954C-3.38245 9.53692 0.960978 0.579265 7.33137-1.09986 16.0182-3.89933 20.0722 1.41929 16.0182 10.0966 12.5438 17.0944 2.98794 19.6135-0.48651 14.2954Z" fill="#0A6B3C" fill-rule="evenodd" transform="matrix(1 0 0 -1 1850 1203)"/><path d="M-2.47008 2.22422C-0.664328-3.17054 5.0538-3.76985 6.85905 1.32526 8.36393 4.32229 6.85905 5.82106 2.6463 5.82106-0.965203 5.82106-3.07183 4.32229-2.47008 2.22422Z" fill="#0A6B3C" fill-rule="evenodd" transform="matrix(1 0 0 -1 2559 1095)"/><path d="M2.22755 14.2502C-7.04918 4.20058-1.25098-6.99779 9.76526 0.467634 14.6935 3.62595 20.2013 15.1119 18.172 18.2702 15.2731 23.1519 9.47494 21.429 2.22755 14.2502Z" fill="#0A6B3C" fill-rule="evenodd" transform="matrix(1 0 0 -1 2500 1170)"/><path d="M-1.25635 3.75467C-3.23048 0.275426 2.12801-3.2043 5.79385-0.884644 8.89625 1.14512 6.92212 6.36471 2.97386 6.36471 1.56364 6.36471-0.128075 5.20464-1.25635 3.75467Z" fill="#0A6B3C" fill-rule="evenodd" transform="matrix(1 0 0 -1 2067 1349)"/><path d="M2.22016 15.5063C-0.830483 13.2613-2.49468 9.0519-1.66281 4.84246-0.553194-4.13755 13.8691-6.10198 21.08 1.75529 25.5175 7.08747 25.5175 7.6486 18.3066 13.2613 9.70881 20.2769 8.5992 20.2769 2.22016 15.5063Z" fill="#0A6B3C" fill-rule="evenodd" transform="matrix(1 0 0 -1 2212 483)"/><path d="M35.5283 116.059C11.0283 107.207-1.2216 87.561-1.2216 57.5525-1.2216 32.5092 9.05957 14.3745 28.5284 4.87529 48.8724-5.27142 82.9972-0.953511 98.7474 13.727 103.122 17.8287 103.779 20.4195 103.779 36.1795 103.779 48.7009 102.903 54.53 100.716 56.2571 98.7474 57.9842 90.6536 58.6318 78.1847 58.2001 60.2471 57.5525 58.9349 57.3367 58.2784 52.8029 57.4036 47.4055 60.9036 46.1104 78.6224 45.2467L89.5597 44.5992 90.2162 34.6683C90.8723 25.8166 89.9975 23.8737 84.9662 19.9878 72.0599 9.84073 45.1534 8.54568 30.9349 17.397 19.9972 24.0895 11.466 40.9288 11.466 56.0413 11.466 72.8805 14.966 84.1068 22.8411 93.606 39.6847 113.899 77.7473 111.093 86.4971 89.2881 89.1223 82.8114 98.0912 83.4593 98.9661 90.3677 99.8412 95.7648 88.6849 109.15 79.2785 113.899 70.0909 118.649 45.3721 119.944 35.5283 116.059Z" fill="#0A6B3C" fill-rule="evenodd" transform="matrix(1 0 0 -1 1989 1668)"/><path d="M19.9164 80.2032C16.9063 78.9063 12.1762 78.4742 9.16616 79.1224-1.36877 81.0675-1.79904 79.7707-1.15382 38.058L-0.508953-0.629189 4.86635-0.629189 10.2413-0.629189 11.3164 29.8451C12.1762 55.9967 13.0364 61.1837 16.4764 65.0739 18.8413 67.6676 22.7115 69.6127 25.2914 69.6127 31.5265 69.6127 38.8367 75.2323 36.0416 77.8256 32.3867 81.4997 25.5063 82.3644 19.9164 80.2032Z" fill="#0A6B3C" fill-rule="evenodd" transform="matrix(1 0 0 -1 2120 1664)"/><path d="M22.9681 115.399C19.4956 114.317 12.5507 113.669 7.77602 113.885L-0.90512 114.534-1.55643 58.532C-1.77341 26.5309-1.1221 1.4492-0.0371868 0.367965 1.04809-0.71327 3.8696-0.929445 6.47376-0.0643849 10.3805 1.01649 11.0315 3.17896 11.4655 18.963 12.1168 38.423 12.3338 38.423 25.5726 33.2338 41.633 26.7471 64.8553 42.5314 69.196 62.64 74.4047 87.2897 62.2508 111.074 42.284 115.831 32.3006 117.993 31.4326 117.993 22.9681 115.399ZM47.71 101.993C52.7017 97.8845 58.7783 82.749 58.7783 73.8837 58.7783 63.9374 54.4379 53.3427 47.927 47.5045 44.4545 44.2612 40.1138 43.18 32.0836 43.3965 23.1851 43.3965 20.3639 44.4774 16.2402 49.2343 6.47376 60.6941 7.55903 92.2628 18.1934 102.209 26.0066 109.344 38.8115 109.344 47.71 101.993Z" fill="#0A6B3C" fill-rule="evenodd" transform="matrix(1 0 0 -1 2263 1699)"/><path d="M23.392 83.9892C2.73112 77.4801-8.36051 44.5007 2.51369 22.1527 10.9954 4.5781 18.6074-0.629109 35.7886-0.629109 49.2724-0.629109 57.5366 2.40852 64.7134 10.6534 81.2419 29.0957 77.7623 67.4995 58.4064 79.4327 49.7072 84.8568 32.7438 87.0268 23.392 83.9892ZM54.2744 67.9333C70.1507 49.9249 63.8437 15.6436 44.0529 10.2195 25.5667 5.22922 11.2128 19.549 11.2128 42.5477 11.2128 63.8111 20.3472 75.3105 37.3106 75.3105 46.445 75.3105 48.6197 74.4424 54.2744 67.9333Z" fill="#0A6B3C" fill-rule="evenodd" transform="matrix(1 0 0 -1 2350 1667)"/><path d="M1.47887 83.2878C-2.83572 81.7611-2.18869 31.5988 2.12589 18.7311 7.95056 1.50167 28.444-5.91378 44.1919 3.46446 49.3692 6.51786 51.095 6.73591 55.6252 4.33665 58.4297 2.81032 61.8812 2.15581 63.1757 2.81032 64.6857 3.90056 65.5484 17.2044 65.5484 42.0677 65.5484 81.5431 64.4701 86.7773 56.0566 83.5059 53.2524 82.4153 52.605 78.2716 52.605 56.4617 52.605 42.2857 51.7423 28.1093 50.4479 25.0559 47.2121 16.1141 40.309 10.6615 32.3273 10.6615 14.6379 10.6615 11.6178 16.7683 11.6178 52.7542 11.6178 82.1972 10.1077 86.9953 1.47887 83.2878Z" fill="#0A6B3C" fill-rule="evenodd" transform="matrix(1 0 0 -1 2174 1668)"/><path d="M-0.176987 121.75C-1.26239 120.01 10.0279 84.3322 17.8446 65.1885 20.4503 58.8796 24.5755 48.6551 26.9641 42.5638 29.5695 36.255 34.7808 23.8548 38.906 15.3706L46.2886-0.510266 153.333-0.510266C233.67-0.510266 261.028 0.142585 262.982 2.10041 266.673 5.79858 266.673 117.181 262.982 120.88 261.028 122.838 228.676 123.49 130.751 123.49 59.3162 123.49 0.474614 122.62-0.176987 121.75Z" fill="#0A6B3C" fill-rule="evenodd" transform="matrix(1 0 0 -1 1266 1752)"/><path d="M16.2829 113.766C9.56711 113.119 6.53412 111.61 6.53412 109.454 6.53412 107.729 4.80104 106.436 2.85136 106.436-2.13131 106.867-2.99767 99.1046-2.56449 49.0835-2.13131 10.9211-1.69813 7.03996 1.76804 6.39328 3.71808 5.96216 5.45117 4.23732 5.45117 2.51248 5.45117-0.0749619 19.5325-0.506082 99.2555-0.506082L193.06-0.506082 199.993 9.19628C203.892 14.5864 206.925 19.9764 206.925 21.2702 206.925 22.5639 208.225 26.2291 209.958 29.2477 215.591 40.0282 230.322 78.6218 232.272 87.893 232.922 90.9116 234.222 94.3613 235.088 95.4394 236.172 96.7331 237.254 101.261 237.471 105.788L238.338 114.197 132.185 114.413C73.6924 114.629 21.6991 114.413 16.2829 113.766Z" fill="#0A6B3C" fill-rule="evenodd" transform="matrix(1 0 0 -1 2893 1747)"/><path d="M0.679786 265.379C-0.194952 264.728-0.850732 204.648-0.850732 131.987L-0.850732-0.103554 18.3895 0.546994 37.4115 1.1979 38.0673 129.167C38.2862 199.659 38.0673 259.305 37.4115 262.125 36.3182 266.463 35.0066 266.897 19.0456 266.897 9.64394 266.897 1.33557 266.246 0.679786 265.379Z" fill="#0A6B3C" fill-rule="evenodd" transform="matrix(1 0 0 -1 1777 2045)"/><path d="M0.594906 259.71C-0.273267 258.409-0.924126 87.3349-0.49022 1.03915-0.49022 0.17205 36.834-0.261501 82.6212-0.0447257L165.516 0.6056 166.167 11.4469C166.818 19.6862 165.95 22.7217 163.128 24.8899 160.091 27.058 144.467 27.7087 98.0281 27.7087 50.288 27.7087 36.4001 28.359 34.6641 30.5271 32.9278 32.4788 32.06 67.8208 32.06 144.359 31.843 239.979 31.4091 255.807 28.588 258.625 24.8991 262.312 2.7648 263.179 0.594906 259.71Z" fill="#0A6B3C" fill-rule="evenodd" transform="matrix(1 0 0 -1 1568 2044)"/><path d="M2.57935 260.53C-0.886808 258.574-1.31994 249.661-1.10337 131.845-1.10337 62.2861-0.453313 4.03009 0.629522 2.50845 1.71272 0.552171 6.47827-0.099803 16.226 0.334846L30.0895 0.98682 31.1723 106.847C31.8224 164.886 32.9052 213.143 33.5553 213.795 35.5047 215.751 41.1366 206.621 43.7361 197.492 45.0358 193.362 56.733 158.8 69.7299 120.542 82.9434 82.2843 95.7237 44.6788 98.3232 36.8533 101.139 29.0278 104.388 19.2461 105.905 15.1162 107.637 10.9859 109.37 5.76904 110.02 3.81276 110.887 0.552171 113.703-0.099803 125.183-0.099803 138.83-0.099803 139.48 0.117522 142.946 6.85603 144.895 10.5513 147.278 16.2032 148.144 19.2461 149.228 22.2893 155.943 42.0702 163.308 62.9381 170.672 83.8059 182.803 118.585 190.384 140.105 210.746 198.361 214.429 207.491 218.328 208.143 221.36 208.795 221.794 198.796 222.227 104.891L222.877 0.98682 236.957 0.98682 251.037 0.98682 251.687 129.237C252.12 247.922 251.903 257.704 248.437 260.312 244.105 263.573 214.645 263.79 208.797 260.747 206.414 259.443 203.165 253.791 201.432 248.14 199.699 242.488 188.868 210.534 177.387 177.059 165.907 143.584 155.726 113.369 154.643 109.673 153.56 106.195 148.361 90.5444 142.946 74.8934 133.198 46.6351 128.433 39.0273 124.317 45.5481 123.017 47.2874 114.352 72.7198 104.822 102.065 95.074 131.41 86.4092 157.278 85.5429 159.669 81.8602 168.364 55.0001 253.139 55.0001 255.965 55.0001 257.487 52.4006 259.661 49.3679 260.747 42.2198 263.573 7.3449 263.356 2.57935 260.53Z" fill="#0A6B3C" fill-rule="evenodd" transform="matrix(1 0 0 -1 1875 2045)"/><path d="M1.28442 260.053C-1.31214 258.318-1.74519 238.801-1.52884 130.588-1.09579 60.3254-0.230389 2.20672 0.851718 1.1223 1.71712 0.255052 8.85845-0.395745 16.4325 0.0382397L30.2817 0.688676 30.9308 50.3498C31.1475 79.4088 32.4456 101.095 33.5277 102.613 35.0425 104.565 49.3248 105.649 80.7023 106.3 119.437 107.167 127.444 108.034 139.562 112.155 156.874 118.01 173.537 129.287 180.462 139.479 196.258 162.9 197.773 198.248 184.14 224.705 175.485 241.62 150.382 255.716 122.034 259.836 104.29 262.439 5.39613 262.656 1.28442 260.053ZM124.198 229.476C149.084 222.103 159.471 209.091 159.471 185.02 159.471 163.117 150.382 149.455 129.608 140.13 121.385 136.66 115.542 136.226 76.3742 136.66L32.4456 137.311 31.7965 182.634C31.3638 214.079 32.0129 228.826 33.744 230.777 35.6915 233.163 44.3477 233.813 73.1283 233.813 103.424 233.813 112.296 233.163 124.198 229.476Z" fill="#0A6B3C" fill-rule="evenodd" transform="matrix(1 0 0 -1 2191 2044)"/><path d="M0.0621539 258.559C-1.67563 256.605-2.10998 220.336-1.8928 127.817L-1.24091-0.101159 88.9076-0.101159 179.056-0.101159 179.056 10.5408C179.056 16.6215 177.97 22.4855 176.232 24.2229 173.843 26.3946 159.289 27.0464 104.113 27.0464 37.8597 27.0464 34.6013 27.2635 32.4288 31.1726 29.1704 37.4708 29.6051 112.398 32.8635 115.655 34.8185 117.61 52.8482 118.262 100.855 118.262 148.862 118.262 166.892 118.913 168.847 120.868 170.367 122.388 171.453 128.035 171.453 133.464 171.453 138.893 170.367 144.54 168.847 146.061 166.892 148.015 148.862 148.667 100.855 148.667 52.8482 148.667 34.8185 149.318 32.8635 151.273 31.1257 153.01 30.2567 164.955 30.2567 190.148 30.2567 220.336 30.9082 227.068 33.7322 229.892 36.5563 232.932 46.3314 233.366 106.286 233.366 154.727 233.366 176.015 234.018 177.101 235.756 179.925 240.316 179.491 255.519 176.232 258.559 171.888 262.903 3.75525 263.12 0.0621539 258.559Z" fill="#0A6B3C" fill-rule="evenodd" transform="matrix(1 0 0 -1 2439 2044)"/><path d="M0.00144372 259.942C-1.95119 258.855-2.60195 254.507-2.16811 246.462L-1.51735 234.72 39.9236 234.068C71.1668 233.634 82.2322 232.764 83.9679 230.59 85.4867 228.633 86.5717 192.54 86.7886 113.831L87.4394-0.100913 102.627-0.100913 117.815-0.100913 118.9 114.483C119.551 177.32 120.853 229.72 121.72 230.807 122.805 231.677 142.766 232.981 166.199 233.634L208.941 234.72 209.592 245.157C210.026 251.028 209.158 257.116 207.639 258.855 205.47 261.464 188.763 261.899 103.929 261.899 48.3853 261.899 1.52024 261.029 0.00144372 259.942Z" fill="#0A6B3C" fill-rule="evenodd" transform="matrix(1 0 0 -1 2660 2044)"/></g></svg>