<svg width="624" height="132" xmlns="http://www.w3.org/2000/svg" xmlns:xlink="http://www.w3.org/1999/xlink" overflow="hidden"><defs><clipPath id="clip0"><rect x="328" y="294" width="624" height="132"/></clipPath></defs><g clip-path="url(#clip0)" transform="translate(-328 -294)"><path d="M44.8587 127.989C40.768 126.533 40.144 125.701 40.352 122.165 40.56 119.184 40.4213 118.976 37.1627 116.757 33.28 114.053 31.408 113.845 29.2587 115.856 26.0693 118.768 21.7707 115.44 22.1867 110.448 22.464 105.733 22.464 105.04 21.9093 103.515 21.4933 102.267 21.84 101.504 23.712 99.84 24.96 98.7307 26.4853 97.76 27.04 97.76 27.664 97.76 29.3973 99.008 30.8533 100.603 36.4693 106.288 43.472 110.448 51.4453 112.667 54.704 113.568 55.536 114.123 56.4373 116.133 57.0613 117.451 57.6853 119.669 57.7547 121.125L57.8933 123.76 54.6347 123.621C51.4453 123.413 51.3067 123.483 49.92 126.187 48.3253 129.307 48.464 129.237 44.8587 127.989Z" fill="#03152A" transform="matrix(1 0 0 -1.00733 328 426)"/><path d="M208.901 110.101C208 109.685 207.307 108.784 207.307 108.091 207.307 107.397 209.456 102.405 212.091 96.928 214.725 91.4507 218.192 83.8933 219.787 80.08 223.669 70.9973 226.373 65.6587 227.691 64.5493 228.453 63.9253 230.672 63.7173 235.109 63.856 242.736 64.2027 242.597 63.9947 247.589 75.5733 249.461 79.872 251.541 84.656 252.304 86.2507 253.067 87.776 255.216 92.352 257.088 96.3733 262.843 108.507 262.912 108.645 261.595 109.963 260.693 110.864 259.584 111.003 256.464 110.725 250.917 110.24 249.739 109.339 247.381 104.139 246.272 101.573 244.4 97.4827 243.221 94.9867 242.043 92.4907 239.893 87.9147 238.437 84.7947 236.981 81.6053 235.525 79.04 235.179 79.04 234.069 79.04 232.336 81.4667 230.533 85.6267 229.493 87.9147 228.107 91.0347 227.413 92.56 226.72 94.0853 224.709 98.3147 223.045 102.059 221.243 105.941 219.301 109.061 218.469 109.547 216.251 110.656 210.635 111.072 208.901 110.101Z" fill="#03152A" transform="matrix(1 0 0 -1.00733 328 426)"/><path d="M577.339 110.448C576.021 109.2 577.339 106.773 586.629 93.3227 588.987 89.9947 591.344 86.0427 591.829 84.656 592.384 83.2 592.731 78.9013 592.8 74.3947 592.8 64.7573 593.424 63.7173 598.763 64.272 604.656 64.9653 604.587 64.7573 604.587 74.7413L604.656 83.5467 609.648 91.5893C612.421 96.0267 615.819 101.573 617.275 103.931 620.325 108.715 620.117 109.893 616.027 110.656 610.965 111.557 606.251 108.16 602.16 100.603 600.981 98.5227 599.803 97.0667 599.248 97.2053 598.693 97.344 596.475 100.048 594.325 103.307 590.443 109.131 590.304 109.2 586.56 110.032 582.123 110.933 577.963 111.141 577.339 110.448Z" fill="#03152A" transform="matrix(1 0 0 -1.00733 328 426)"/><path d="M153.227 108.853C152.395 107.328 153.019 100.741 154.128 99.3547 154.613 98.6613 159.12 98.4533 172.224 98.4533 186.853 98.4533 189.904 98.3147 191.221 97.344 193.093 96.0267 193.163 94.224 191.429 92.6293 190.251 91.52 188.309 91.4507 172.848 91.52 163.419 91.5893 155.168 91.4507 154.544 91.2427 153.643 90.8267 153.365 89.1627 153.019 82.992 151.979 65.3813 152.187 64.48 157.595 64.48 159.744 64.48 161.893 64.896 162.795 65.5893 164.181 66.56 164.32 67.184 164.32 72.8 164.32 78.2773 164.459 79.1093 165.707 79.7333 166.539 80.2187 172.016 80.4267 180.405 80.288L193.787 80.1493 196.699 82.0213C200.165 84.24 202.523 87.2907 204.187 91.728 205.365 94.848 205.365 95.1253 204.187 98.3147 202.453 102.891 199.056 107.189 196.213 108.437 194.341 109.2 189.28 109.547 173.888 109.824 154.405 110.24 153.989 110.24 153.227 108.853Z" fill="#03152A" transform="matrix(1 0 0 -1.00733 328 426)"/><path d="M278.72 109.547C277.472 108.784 277.195 99.632 278.373 98.592 278.789 98.3147 290.437 98.176 304.373 98.384L329.68 98.8 329.68 104.347 329.68 109.893 304.72 110.032C289.744 110.171 279.344 109.963 278.72 109.547Z" fill="#03152A" transform="matrix(1 0 0 -1.00733 328 426)"/><path d="M337.792 109.755C337.099 109.477 337.029 105.04 337.376 87.4987 337.653 74.3947 338.069 65.1733 338.485 64.688 338.901 64.1333 340.912 63.7867 343.616 63.7867 349.787 63.7867 349.995 64.2027 349.787 77.3067 349.717 83.0613 349.787 88.4 349.995 89.3013 350.411 91.3813 351.936 91.2427 354.016 88.9547 354.987 87.8453 356.928 85.7653 358.384 84.24 359.771 82.7147 362.544 79.5253 364.485 77.168 368.576 72.176 372.597 67.6693 375.024 65.3813 376.619 63.856 377.173 63.7867 383.621 63.9253L390.485 64.1333 390.416 86.32C390.277 112.112 390.832 110.379 383.067 110.101L378.213 109.893 377.867 96.928C377.659 89.856 377.243 83.7547 376.965 83.408 376.341 82.8533 368.923 90.48 360.048 100.949 352.491 109.755 351.728 110.24 344.517 110.171 341.328 110.171 338.277 109.963 337.792 109.755Z" fill="#03152A" transform="matrix(1 0 0 -1.00733 328 426)"/><path d="M398.251 109.685C396.933 108.784 396.587 106.773 397.003 102.96 397.349 100.117 397.765 99.1467 398.944 98.7307 399.707 98.384 411.493 98.2453 425.013 98.4533L449.627 98.8 449.835 103.653C449.973 107.605 449.835 108.645 448.864 109.339 447.893 110.032 441.931 110.24 423.349 110.24 409.968 110.24 398.667 109.963 398.251 109.685Z" fill="#03152A" transform="matrix(1 0 0 -1.00733 328 426)"/><path d="M457.808 109.824C456.629 109.339 456.56 99.424 457.669 98.7307 458.085 98.5227 466.683 98.2453 476.805 98.176 493.584 98.1067 495.248 97.968 496.08 96.8587 497.328 95.1253 496.565 92.976 494.416 92.4213 493.445 92.144 484.64 91.936 474.933 91.936L457.253 91.8667 457.045 78.7627C456.907 69.7493 457.115 65.3813 457.669 64.7573 458.571 63.648 466.336 63.44 468 64.48 468.763 64.9653 469.109 66.976 469.387 72.2453L469.733 79.3867 475.141 79.5947C481.312 79.8027 480.688 80.1493 489.493 72.1067 498.715 63.648 498.368 63.7867 506.48 63.7867 515.979 63.7867 516.464 64.272 511.68 68.848 509.6 70.7893 505.995 74.1173 503.707 76.0587L499.547 79.664 503.152 82.992C507.797 87.2907 508.907 89.648 508.907 95.3333 508.907 99.2853 508.629 100.395 506.757 103.168 505.579 104.971 503.291 107.259 501.765 108.16 498.853 109.893 498.784 109.893 478.747 110.032 467.723 110.101 458.224 110.032 457.808 109.824Z" fill="#03152A" transform="matrix(1 0 0 -1.00733 328 426)"/><path d="M527.765 109.547C524.576 108.784 520.763 105.525 518.683 101.851 517.019 98.9387 516.949 98.2453 516.88 87.7067 516.88 77.2373 516.949 76.4053 518.613 73.1467 520.763 68.848 524.507 66.2827 530.4 64.896 536.917 63.44 569.504 63.44 570.96 64.9653 571.792 65.7973 572 68.2933 572 77.7227 572 84.5173 571.723 90.1333 571.307 90.896 570.613 92.144 569.643 92.2133 552.587 92.2133 534.837 92.2133 534.629 92.2133 533.589 90.688 532.272 88.816 532.064 81.4667 533.312 80.704 533.797 80.3573 539.344 80.2187 545.653 80.3573 554.667 80.496 557.371 80.288 558.411 79.5253 559.243 78.9013 559.589 78.1387 559.312 77.376 558.896 76.4053 557.232 76.2667 545.307 76.2667 528.251 76.2667 529.013 75.7813 529.013 86.528 529.013 90.6187 529.221 94.64 529.429 95.472 530.123 98.1067 532.827 98.592 545.515 98.3147 556.816 98.1067 557.44 98.0373 559.659 96.3733 562.432 94.3627 569.781 93.5307 571.099 95.056 572.139 96.4427 572.763 108.507 571.792 109.477 570.891 110.379 531.579 110.448 527.765 109.547Z" fill="#03152A" transform="matrix(1 0 0 -1.00733 328 426)"/><path d="M47.424 105.941C42.1547 102.752 35.7067 98.0373 33.696 95.7493 32.656 94.5707 32.5867 94.1547 33.28 93.2533 34.4587 91.7973 35.568 91.936 37.1627 93.6693 38.7573 95.472 46.9387 100.88 49.0187 101.504 51.9307 102.405 54.6347 107.328 52.832 108.437 52.4853 108.645 50.0587 107.467 47.424 105.941Z" fill="#03152A" transform="matrix(1 0 0 -1.00733 328 426)"/><path d="M73.424 107.259C72.1067 106.427 70.304 104.277 69.4027 102.405 67.808 99.216 67.808 99.008 68.9173 95.7493 69.5413 93.808 70.0267 91.936 70.0267 91.4507 70.0267 90.272 67.3227 84.7253 66.4907 84.1707 66.144 83.9627 65.8667 83.408 65.8667 82.8533 65.8667 82.2987 65.104 80.704 64.1333 79.3173 62.6773 77.2373 62.3307 76.96 61.984 78 61.7067 78.6933 61.8453 79.7333 62.2613 80.3573 62.7467 80.9813 63.3013 81.952 63.5093 82.5067 63.7173 83.0613 64.688 85.2107 65.6587 87.2213 68.0853 92.0053 67.392 92.8373 62.2613 91.5893 53.9413 89.44 46.9387 83.9627 42.64 76.1973 40.768 72.7307 40.6293 71.968 40.56 64.8267 40.56 58.656 40.8373 56.576 41.9467 54.08 43.68 50.0587 47.9093 44.4427 50.544 42.432 52.832 40.768 55.4667 40.4213 55.4667 41.7387 55.4667 42.5707 56.992 45.76 60.0427 51.2373 63.024 56.6453 62.3307 57.5467 55.3973 57.5467 51.9307 57.5467 51.3067 57.7547 51.3067 58.7947 51.3067 59.488 51.6533 60.3893 52.0693 60.8053 52.9707 61.7067 54.3573 64.064 55.4667 66.4907 56.7147 69.264 57.8933 67.2533 56.8533 64.2027 55.6747 60.528 56.2293 59.6267 59.904 59.6267 61.568 59.6267 63.44 59.4187 64.064 59.2107 66.2133 58.3787 65.936 57.6853 56.6453 39.7973 55.536 37.7173 54.3573 36.0533 54.0107 36.0533 53.1787 36.0533 53.1787 33.488 54.0107 33.0027 54.3573 32.7253 55.328 33.4187 56.0907 34.4587 60.528 40.2827 72.1067 56.2293 72.1067 56.5067 72.1067 56.7147 73.4933 58.7947 75.2267 61.152 77.4453 64.1333 78.3467 65.936 78.208 67.184 78 68.7787 77.584 69.056 74.048 69.68 71.8987 70.096 69.888 70.5813 69.68 70.8587 69.1253 71.4133 76.4053 83.8933 78.208 85.4187 78.832 85.9733 80.8427 87.0827 82.6453 87.776 84.448 88.4693 86.944 89.9253 88.1227 90.896 89.9947 92.4213 90.4107 93.2533 90.688 96.512 91.104 101.643 90.064 102.128 86.5973 98.5227 84.448 96.304 83.3387 95.68 81.536 95.68 77.3067 95.68 74.5333 100.603 76.544 104.555 78.7627 108.923 77.5147 110.032 73.424 107.259Z" fill="#03152A" transform="matrix(1 0 0 -1.00733 328 426)"/><path d="M111.557 101.435C109.824 96.9973 110.032 95.472 112.875 91.1733 114.331 88.8853 115.787 86.3893 115.995 85.6267 116.203 84.864 117.243 81.8827 118.213 79.04 119.877 74.3947 120.085 72.8 120.085 64.4107 120.085 56.4373 119.877 54.288 118.56 50.336 117.659 47.84 116.688 45.552 116.411 45.344 114.885 44.4427 116.203 42.1547 121.056 37.5093 123.899 34.736 126.672 32.656 127.088 32.7947 128.752 33.3493 128.405 35.984 126.464 37.7173 124.592 39.2427 124.592 39.52 125.355 42.016 125.771 43.5413 126.325 45.4133 126.533 46.2453 126.811 47.216 127.712 47.9787 128.821 48.256 129.861 48.464 131.387 48.7413 132.219 48.9493 134.091 49.296 135.893 52.4853 135.893 55.328 135.893 56.992 135.408 57.5467 132.981 58.656L130 59.9733 129.792 64.6187 129.584 69.264 132.219 70.512C134.576 71.6213 134.853 72.1067 135.061 74.6027 135.2 76.128 134.923 78.208 134.576 79.248 133.952 80.912 133.467 81.12 130.693 81.12 127.92 81.12 127.435 81.328 126.811 83.0613 126.395 84.1013 125.563 86.0427 125.008 87.36 123.968 89.7173 124.037 89.7867 126.117 91.5893 128.752 93.7387 128.821 95.5413 126.533 99.0773 124.315 102.683 123.829 102.891 121.264 101.504 119.531 100.672 118.699 100.533 117.451 101.157 116.549 101.573 115.787 102.197 115.787 102.613 115.787 102.96 115.024 103.307 114.053 103.307 112.736 103.307 112.112 102.752 111.557 101.435Z" fill="#03152A" transform="matrix(1 0 0 -1.00733 328 426)"/><path d="M11.5787 99.216C10.2613 98.7307 7.62667 95.1947 7.62667 93.808 7.62667 93.392 8.38933 92.0747 9.36 90.9653 11.44 88.4693 11.5093 86.5973 9.49867 82.5067 8.18133 79.8027 7.55733 79.3173 4.85333 78.6933L1.73333 77.9307 1.52533 74.3253C1.31733 70.8587 1.38667 70.72 3.744 69.7493 6.58667 68.5707 7.14133 67.1147 6.79467 61.6373 6.58667 58.1013 6.448 57.824 4.02133 56.6453 1.59467 55.4667 1.38667 55.12 1.38667 52.3467 1.38667 47.9787 1.872 47.1467 4.50667 47.1467 7.97333 47.1467 8.944 46.5227 10.1227 43.7493 12.5493 38.2027 12.5493 37.5093 10.3307 35.2213 7.83467 32.5867 7.83467 31.7547 10.2613 28.3573 11.648 26.3467 12.48 25.7227 13.52 25.9307 14.2827 26.1387 15.808 26.4853 16.848 26.7627 18.304 27.1093 19.344 26.832 20.8693 25.7227 23.4347 23.7813 24.4053 24.128 25.8613 27.248 27.456 30.576 27.3867 31.2693 24.752 34.736 18.6507 42.9173 15.6693 53.872 16.1547 66.2827 16.5013 75.296 17.5413 79.5947 20.8 86.0427 21.9093 88.3307 22.88 90.7573 22.88 91.3813 22.88 94.1547 14.144 100.117 11.5787 99.216Z" fill="#03152A" transform="matrix(1 0 0 -1.00733 328 426)"/><path d="M57.5467 99.3547C49.6427 98.1067 39.312 89.3013 35.0133 80.08 33.488 76.8213 32.9333 74.3253 32.448 68.432 31.8933 61.776 31.9627 60.1813 33.28 54.6347 35.0133 47.216 37.44 43.056 43.4027 37.232 48.1173 32.656 49.7813 31.8933 51.0987 33.696 52.6933 35.9147 52.0693 37.44 48.1173 41.1147 35.0827 53.04 32.5867 66.6293 40.976 79.872 45.2747 86.528 53.8027 92.976 60.0427 94.2933 62.5387 94.848 64.064 95.5413 64.5493 96.4427 66.0053 99.216 63.3707 100.325 57.5467 99.3547Z" fill="#03152A" transform="matrix(1 0 0 -1.00733 328 426)"/><path d="M278.373 92.6293C277.819 90.7573 277.472 84.7253 277.819 82.992L278.165 81.12 303.957 81.2587 329.68 81.4667 329.888 86.944C330.027 90.896 329.819 92.6293 329.195 93.0453 327.808 93.9467 278.651 93.5307 278.373 92.6293Z" fill="#03152A" transform="matrix(1 0 0 -1.00733 328 426)"/><path d="M398.459 92.8373C397.557 92.2827 397.28 91.1733 397.28 87.7067 397.28 80.4267 394.715 81.12 423.211 81.12 441.792 81.12 448.517 81.328 449.141 81.952 449.627 82.4373 449.973 84.7947 449.973 87.776 449.973 92.6987 449.973 92.8373 448.101 93.1147 444.427 93.808 399.707 93.5307 398.459 92.8373Z" fill="#03152A" transform="matrix(1 0 0 -1.00733 328 426)"/><path d="M90.1333 89.9947C89.3707 89.1627 88.7467 88.2613 88.7467 87.984 88.7467 87.7067 90.064 85.904 91.728 84.032 93.3227 82.0907 95.8187 78.3467 97.344 75.5733 99.7013 71.136 99.9787 70.096 99.9787 65.6587 100.048 57.1307 96.1653 48.3947 89.5787 42.016 86.736 39.312 85.4187 38.4107 81.12 36.3307 77.0293 34.4587 74.1867 33.8347 65.8667 33.4187 58.864 33.0027 57.8933 32.7947 57.6853 31.616 57.2693 29.6747 58.24 29.1893 63.9253 28.4267 75.712 26.9707 84.1013 29.6053 92.352 37.3013 97.8987 42.5707 101.365 49.088 103.445 58.24 104.624 63.648 104.624 64.48 103.723 68.2933 103.168 70.5813 102.544 73.84 102.267 75.5733 101.712 79.1787 99.7707 82.992 96.512 87.2213 93.2533 91.312 91.936 91.936 90.1333 89.9947Z" fill="#03152A" transform="matrix(1 0 0 -1.00733 328 426)"/><path d="M105.941 85.6267C105.317 84.3093 105.387 83.616 106.288 82.2293 108.091 79.5253 110.24 70.1653 110.24 65.0347 110.24 62.4 109.893 58.032 109.477 55.328 108.853 51.2373 108.853 50.2667 109.755 49.4347 110.656 48.464 110.933 48.6027 112.043 50.2667 113.083 51.8613 113.36 54.08 113.568 63.024 113.845 72.5227 113.707 74.464 112.459 78.4853 109.755 87.0827 107.675 89.44 105.941 85.6267Z" fill="#03152A" transform="matrix(1 0 0 -1.00733 328 426)"/><path d="M82.4373 85.072C80.3573 84.3093 73.1467 73.9787 73.84 72.8 74.048 72.4533 76.4053 72.1067 79.04 72.1067 85.9733 72.1067 86.32 71.8987 84.032 68.432 82.992 66.8373 77.5147 59.3493 71.8987 51.7227 65.0347 42.64 61.776 37.7867 62.2613 37.3013 62.6773 36.8853 65.6587 36.7467 69.4027 36.8853 74.7413 37.0933 76.6133 37.5093 79.7333 38.9653 91.4507 44.72 98.0373 57.2 95.7493 69.1947 94.5707 75.1573 91.104 81.328 87.0827 84.7253 85.4187 86.112 85.0027 86.112 82.4373 85.072Z" fill="#03152A" transform="matrix(1 0 0 -1.00733 328 426)"/><path d="M25.7227 83.2693C24.8907 82.16 24.2667 80.6347 24.2667 79.872 24.2667 79.1093 23.712 77.168 23.088 75.504 22.256 73.216 21.9093 70.1653 21.9093 63.44 21.9093 53.9413 23.088 48.5333 26.3467 43.1253 28.7733 39.2427 31.616 40.976 29.8827 45.344 26.3467 53.9413 25.0987 68.1547 27.248 74.88 29.6747 82.5067 29.952 83.824 29.536 84.5173 28.704 85.8347 27.1787 85.3493 25.7227 83.2693Z" fill="#03152A" transform="matrix(1 0 0 -1.00733 328 426)"/><path d="M277.957 74.3947C277.749 68.5013 278.165 65.4507 279.275 64.6187 280.8 63.44 328.709 64.2027 329.541 65.4507 329.819 65.8667 329.957 68.432 329.888 71.0667L329.68 75.92 303.888 76.128 278.027 76.2667 277.957 74.3947Z" fill="#03152A" transform="matrix(1 0 0 -1.00733 328 426)"/><path d="M398.112 75.4347C397.627 74.9493 397.28 72.6613 397.28 69.888 397.28 65.8667 397.488 65.104 398.736 64.4107 401.093 63.1627 447.269 63.7867 448.864 65.104 449.765 65.8667 449.973 67.0453 449.835 70.9973L449.627 75.92 424.32 76.128C405.184 76.2667 398.736 76.0587 398.112 75.4347Z" fill="#03152A" transform="matrix(1 0 0 -1.00733 328 426)"/><path d="M177.84 48.5333C170.491 48.1867 171.253 48.1173 184.773 47.9093 209.733 47.4933 527.003 47.4933 548.08 47.84L567.493 48.1867 546 48.464C511.68 48.88 186.992 48.9493 177.84 48.5333Z" fill="#03152A" transform="matrix(1 0 0 -1.00733 328 426)"/><path d="M102.405 39.6587C99.4933 35.776 94.64 31.1307 89.9947 27.8027 86.736 25.5147 85.5573 22.88 87.7067 22.88 89.648 22.88 96.72 27.1787 100.048 30.368 104.416 34.5973 107.605 39.312 107.328 41.184 106.981 43.8187 104.971 43.1947 102.405 39.6587Z" fill="#03152A" transform="matrix(1 0 0 -1.00733 328 426)"/><path d="M109.963 38.3413C109.755 38.064 109.547 36.608 109.547 35.0827 109.547 32.448 109.131 31.824 105.248 27.9413 99.84 22.7413 94.1547 18.928 87.152 15.9467 81.328 13.4507 80.8427 12.9653 80.1493 8.59733 79.5947 5.616 80.5653 4.43733 82.784 5.26933 84.1013 5.75467 86.6667 4.368 86.6667 3.18933 86.6667 2.704 87.2213 1.80267 87.9147 1.17867 88.9547 0.208 89.5093 0.208 91.728 0.970667 93.184 1.456 94.9867 2.496 95.7493 3.18933 96.928 4.368 96.9973 4.85333 96.304 6.79467 95.472 9.22133 95.68 9.49867 99.4933 12.2027 103.029 14.6987 104.347 14.768 106.635 12.8267 109.339 10.608 110.379 10.608 113.36 13.2427 116.133 15.6693 116.411 17.264 114.4 19.0667 112.32 20.9387 112.667 22.3947 116.133 26.624 117.867 28.7733 119.253 30.7147 119.253 31.0613 119.253 31.824 112.875 37.856 111.488 38.3413 110.864 38.5493 110.171 38.5493 109.963 38.3413Z" fill="#03152A" transform="matrix(1 0 0 -1.00733 328 426)"/><path d="M152.533 29.8133C151.771 29.0507 151.147 27.872 151.147 27.1787 151.147 25.6533 154.405 22.3947 156.347 22.048 158.08 21.7707 158.635 18.8587 157.109 18.304 156.555 18.096 155.237 18.512 154.197 19.344 152.325 20.8 151.147 20.7307 151.147 19.136 151.147 16.1547 158.149 14.6987 160.368 17.1947 161.616 18.512 161.893 20.592 161.131 22.5333 160.853 23.1573 159.12 24.4053 157.248 25.376 155.376 26.3467 154.059 27.3867 154.267 27.7333 154.891 28.7733 156.555 28.5653 158.427 27.3173 160.021 26.2773 160.16 26.2773 160.576 27.3173 161.824 30.576 155.307 32.5867 152.533 29.8133Z" fill="#03152A" transform="matrix(1 0 0 -1.00733 328 426)"/><path d="M171.392 30.6453C170.768 30.2293 170.56 28.2187 170.699 23.1573L170.907 16.2933 175.621 16.0853C179.435 15.9467 180.267 16.0853 180.267 16.9867 180.267 17.7493 179.573 18.0267 177.563 18.0267 172.709 18.0267 171.739 21.9093 176.523 22.3253 179.643 22.6027 180.405 24.0587 177.701 24.6133 172.709 25.7227 172.155 27.9413 176.8 28.4267 178.949 28.6347 179.92 29.12 179.92 29.8133 179.92 30.576 178.949 30.9227 176.107 31.0613 174.027 31.1307 171.877 30.9227 171.392 30.6453Z" fill="#03152A" transform="matrix(1 0 0 -1.00733 328 426)"/><path d="M190.112 30.368C189.557 29.8133 189.28 27.1787 189.28 23.1573 189.28 17.8187 189.488 16.7093 190.459 16.3627 191.845 15.808 192.747 17.056 192.747 19.552 192.747 22.6027 193.925 22.3947 196.213 19.0667 197.392 17.3333 198.779 15.9467 199.333 15.9467 200.651 15.9467 200.651 16.7093 199.195 19.76 198.085 22.048 198.085 22.3253 199.195 24.1973 200.72 26.832 200.651 28.1493 198.987 29.8133 197.392 31.408 191.499 31.7547 190.112 30.368ZM196.768 26.9013C196.629 25.7227 196.005 25.2373 194.688 25.0987 193.024 24.8907 192.747 25.0987 192.747 26.624 192.747 28.1493 193.024 28.4267 194.896 28.4267 196.699 28.4267 196.976 28.2187 196.768 26.9013Z" fill="#03152A" transform="matrix(1 0 0 -1.00733 328 426)"/><path d="M217.291 29.4667C216.667 28.4267 215.904 26.4853 215.696 25.0987 215.419 23.6427 214.933 22.6027 214.587 22.6027 214.171 22.672 213.269 24.4747 212.507 26.624 211.536 29.328 210.843 30.5067 210.08 30.2987 208.832 30.0907 209.04 26.2773 210.496 23.4347 211.051 22.3947 211.467 20.8 211.467 19.8293 211.467 18.1653 213.061 15.9467 214.309 15.9467 215.904 15.9467 220.48 29.3973 219.301 30.576 218.747 31.1307 218.192 30.784 217.291 29.4667Z" fill="#03152A" transform="matrix(1 0 0 -1.00733 328 426)"/><path d="M241.904 29.8827C240.448 28.704 240.24 27.9413 240.24 23.712 240.24 17.68 241.488 15.9467 245.717 15.9467 247.936 16.016 248.837 16.3627 249.808 17.68 251.888 20.592 250.293 21.7707 247.52 19.4133 245.579 17.68 245.232 17.68 243.776 19.344 242.944 20.3147 242.667 21.5627 242.805 23.92 243.083 28.2187 244.539 29.328 247.589 27.5253 250.848 25.6533 252.235 27.1787 249.6 29.8133 247.797 31.616 244.053 31.616 241.904 29.8827Z" fill="#03152A" transform="matrix(1 0 0 -1.00733 328 426)"/><path d="M275.253 30.7147C272.965 29.8827 271.787 27.456 271.787 23.504 271.787 18.304 273.659 15.9467 277.819 15.9467 281.84 15.9467 284.267 18.7893 284.267 23.712 284.267 26.5547 283.92 27.456 282.256 29.1893 280.245 31.1307 277.888 31.6853 275.253 30.7147ZM280.523 27.248C282.603 24.4747 280.869 18.0267 278.027 18.0267 276.501 18.0267 273.867 21.1467 273.867 23.0187 273.867 23.712 274.352 25.2373 274.907 26.3467 276.155 28.7733 279.067 29.1893 280.523 27.248Z" fill="#03152A" transform="matrix(1 0 0 -1.00733 328 426)"/><path d="M293.973 29.8133C293.211 29.0507 292.587 27.872 292.587 27.248 292.587 25.7227 295.984 22.1867 297.44 22.1867 298.064 22.1867 298.896 21.84 299.381 21.3547 301.808 18.928 298.411 17.1253 295.568 19.4133 293.211 21.2853 291.893 20.2453 293.557 17.7493 294.459 16.2933 295.221 15.9467 297.717 15.9467 301.045 15.9467 302.987 17.472 302.987 20.0373 302.987 22.5333 301.877 23.92 298.896 25.3067 295.984 26.5547 295.083 28.4267 297.301 28.4267 297.925 28.4267 299.104 27.9413 299.797 27.3867 301.6 26 302.293 26.0693 302.293 27.664 302.293 31.0613 296.677 32.5173 293.973 29.8133Z" fill="#03152A" transform="matrix(1 0 0 -1.00733 328 426)"/><path d="M324.549 30.2293C323.995 29.6053 323.787 26.9707 323.925 22.8107L324.133 16.2933 328.848 16.0853C332.661 15.9467 333.493 16.0853 333.493 16.9867 333.493 17.68 332.8 18.0267 331.136 18.0267 327.669 18.0267 326.56 18.6507 326.56 20.5227 326.56 21.9093 326.907 22.1867 328.848 22.1867 330.027 22.1867 331.483 22.464 331.968 22.8107 333.216 23.5733 331.691 24.752 328.987 25.0987 327.461 25.2373 326.907 25.6533 326.907 26.6933 326.907 27.8027 327.461 28.1493 329.68 28.288 335.296 28.7733 334.395 31.2 328.571 31.2 326.629 31.2 325.035 30.784 324.549 30.2293Z" fill="#03152A" transform="matrix(1 0 0 -1.00733 328 426)"/><path d="M361.227 29.8827C360.464 28.3573 360.395 20.7307 361.157 18.0267 361.573 16.432 361.989 16.2933 365.595 16.2933 369.963 16.2933 371.349 17.5413 367.328 17.888 362.544 18.304 361.851 21.9093 366.565 22.3253 370.171 22.6027 370.24 24.544 366.635 24.8213 364.208 25.0293 362.821 26.416 363.723 27.8027 363.931 28.1493 365.317 28.4267 366.773 28.4267 369.616 28.4267 371.072 29.536 369.477 30.576 368.923 30.9227 367.051 31.2 365.248 31.2 362.683 31.2 361.781 30.9227 361.227 29.8827Z" fill="#03152A" transform="matrix(1 0 0 -1.00733 328 426)"/><path d="M381.611 29.6053C379.947 28.1493 379.739 27.456 379.739 23.712 379.739 18.304 381.472 15.9467 385.493 15.9467 388.336 15.9467 390.763 17.9573 390.139 19.76 389.584 21.1467 388.752 21.0773 387.227 19.4133 386.533 18.6507 385.563 18.0267 385.077 18.0267 383.621 18.0267 382.027 20.9387 382.027 23.712 382.027 27.8027 385.008 29.744 387.643 27.3173 388.96 26.1387 390.347 26.4853 390.347 28.08 390.347 29.4667 387.573 31.2 385.355 31.2 384.315 31.2 382.651 30.4373 381.611 29.6053Z" fill="#03152A" transform="matrix(1 0 0 -1.00733 328 426)"/><path d="M399.845 30.784C398.875 29.744 399.429 28.496 400.955 28.288 402.341 28.08 402.48 27.664 402.827 22.3253 403.035 19.2053 403.52 16.64 403.867 16.64 404.283 16.64 404.699 19.0667 404.907 21.9787 405.253 26.832 405.392 27.456 406.987 28.2187 410.037 29.744 409.067 30.8533 404.56 31.0613 402.203 31.2 400.123 31.0613 399.845 30.784Z" fill="#03152A" transform="matrix(1 0 0 -1.00733 328 426)"/><path d="M418.149 30.2293C417.595 29.6053 417.387 27.04 417.525 23.1573 417.733 18.0267 417.941 16.9867 418.912 16.7787 419.744 16.64 420.091 17.1253 420.299 18.8587 420.437 20.592 420.853 21.216 422.101 21.3547 423.003 21.4933 423.627 21.216 423.627 20.6613 423.696 20.176 424.459 18.8587 425.36 17.68 426.608 16.1547 427.232 15.808 427.856 16.432 428.411 16.9867 428.272 17.8187 427.44 19.6907 426.331 21.9787 426.331 22.3253 427.371 24.544 428.619 27.1787 428.064 30.0213 426.053 30.784 423.973 31.5467 418.981 31.2 418.149 30.2293ZM425.291 27.8027C426.123 26.4853 424.805 24.96 422.933 24.96 421.824 24.96 420.853 25.4453 420.576 26.0693 419.952 27.664 420.715 28.4267 422.933 28.4267 424.043 28.4267 425.083 28.1493 425.291 27.8027Z" fill="#03152A" transform="matrix(1 0 0 -1.00733 328 426)"/><path d="M440.405 30.5067C438.325 29.6053 437.285 26.7627 437.632 22.3947 438.048 17.4027 439.573 15.808 443.664 16.0853 446.368 16.2933 447.061 16.64 448.379 18.6507 450.251 21.3547 450.459 24.8213 448.933 27.7333 447.269 30.992 444.149 31.9627 440.405 30.5067ZM446.576 26.5547C447.893 23.0187 446.299 18.0267 443.872 18.0267 441.653 18.0267 440.267 20.176 440.267 23.5733 440.267 27.248 441.168 28.4267 443.872 28.4267 445.397 28.4267 446.021 28.0107 446.576 26.5547Z" fill="#03152A" transform="matrix(1 0 0 -1.00733 328 426)"/><path d="M459.333 30.2987C458.64 28.704 459.264 16.2933 460.027 16.2933 460.373 16.2933 460.997 17.68 461.344 19.4133L461.968 22.5333 462.731 19.968C464.187 14.976 467.029 14.56 467.445 19.2053 467.723 22.464 468.901 22.3947 469.387 19.0667 469.595 17.68 470.08 16.5707 470.427 16.64 470.843 16.64 471.12 19.4827 471.12 23.7813L471.12 30.8533 469.387 30.8533C467.931 30.8533 467.584 30.4373 467.029 27.872 466.267 24.128 464.533 24.1973 463.424 28.08 462.869 30.0907 462.245 30.9227 461.205 31.0613 460.373 31.2 459.541 30.8533 459.333 30.2987Z" fill="#03152A" transform="matrix(1 0 0 -1.00733 328 426)"/><path d="M481.936 30.2293C481.381 29.6053 481.173 27.04 481.312 22.8107L481.52 16.2933 485.888 16.0853C489.355 15.9467 490.187 16.0853 490.187 16.9173 490.187 17.6107 489.285 18.0267 487.275 18.1653 484.64 18.3733 484.293 18.5813 484.293 20.1067 484.293 21.4933 484.64 21.9093 486.373 22.048 487.552 22.1867 488.869 22.3947 489.424 22.6027 491.019 23.088 489.008 24.8213 486.512 25.0987 484.848 25.2373 484.293 25.6533 484.293 26.6933 484.293 27.8027 484.848 28.1493 487.067 28.4267 488.939 28.6347 489.84 29.12 489.84 29.8133 489.84 31.2693 483.115 31.6853 481.936 30.2293Z" fill="#03152A" transform="matrix(1 0 0 -1.00733 328 426)"/><path d="M502.251 30.16C500.171 28.704 498.853 23.5733 499.824 20.7307 501.003 17.264 502.528 15.9467 505.44 15.9467 507.173 15.9467 508.421 16.432 509.461 17.5413 510.293 18.4427 510.779 19.4133 510.501 19.6213 509.669 20.4533 507.659 20.1067 507.243 19.0667 506.757 17.7493 505.163 17.7493 503.776 19.136 502.32 20.592 502.251 26.5547 503.707 27.7333 504.608 28.496 505.301 28.4267 507.52 27.7333 510.987 26.5547 511.611 27.1787 509.392 29.3973 507.381 31.408 504.469 31.7547 502.251 30.16Z" fill="#03152A" transform="matrix(1 0 0 -1.00733 328 426)"/><path d="M523.259 29.328C521.109 25.0293 519.099 17.264 519.861 16.5013 520.416 15.9467 521.04 16.224 522.08 17.5413 523.952 19.8987 526.24 19.8987 528.181 17.68 529.707 15.9467 531.093 15.392 531.093 16.64 531.093 18.4427 527.904 28.496 526.725 30.368 525.824 31.7547 524.229 31.3387 523.259 29.328ZM525.616 22.672C524.715 21.7707 523.467 22.672 523.952 23.9893 524.229 24.752 524.507 24.8213 525.339 24.1973 525.963 23.6427 526.032 23.088 525.616 22.672Z" fill="#03152A" transform="matrix(1 0 0 -1.00733 328 426)"/><path d="M540.384 30.2987C539.76 28.6347 540.453 16.2933 541.147 16.2933 541.563 16.2933 541.909 17.5413 542.048 19.0667 542.187 20.592 542.533 22.1173 542.811 22.3947 543.365 22.9493 545.099 20.8 546.693 17.68 547.109 16.9173 548.011 16.2933 548.773 16.2933 550.021 16.2933 550.16 16.848 550.368 23.4347 550.507 29.2587 550.368 30.5067 549.536 30.5067 548.427 30.5067 547.387 28.1493 548.08 27.04 548.288 26.624 548.288 25.6533 548.08 24.8907 547.595 23.4347 547.525 23.4347 545.931 25.376 545.029 26.4853 544.336 27.7333 544.267 28.2187 544.267 29.1893 542.325 31.2 541.424 31.2 541.077 31.2 540.592 30.784 540.384 30.2987Z" fill="#03152A" transform="matrix(1 0 0 -1.00733 328 426)"/><path d="M574.704 30.7147C571.445 29.8827 570.267 22.3253 572.763 18.304 573.941 16.3627 574.635 15.9467 576.576 15.9467 579.696 15.9467 581.707 17.056 581.707 18.72 581.707 20.6613 580.667 20.9387 579.28 19.4133 577.616 17.6107 576.576 17.68 575.189 19.76 572.277 24.1973 576.368 31.3387 579.627 27.3867 580.667 26.1387 581.707 26.6933 581.707 28.496 581.707 30.5067 578.101 31.6853 574.704 30.7147Z" fill="#03152A" transform="matrix(1 0 0 -1.00733 328 426)"/><path d="M593.701 29.536C591.968 28.0107 591.76 27.3867 591.76 23.712 591.76 18.5813 593.701 15.9467 597.376 15.9467 600.704 15.9467 601.744 16.5707 603.2 19.4827 604.933 22.8107 604.933 24.336 603.2 27.664 601.259 31.5467 597.029 32.3787 593.701 29.536ZM600.427 27.1093C602.16 23.7813 600.427 18.0267 597.653 18.0267 594.603 18.0267 592.939 24.544 595.365 27.1787 596.821 28.8427 599.525 28.7733 600.427 27.1093Z" fill="#03152A" transform="matrix(1 0 0 -1.00733 328 426)"/><path d="M614.432 30.0907C612.421 28.704 612.421 25.6533 614.501 23.712 615.403 22.88 616.581 22.1867 617.205 22.1867 618.731 22.1867 619.979 20.5227 619.424 19.136 618.869 17.6107 617.344 17.7493 615.68 19.4133 613.947 21.1467 612.907 21.216 612.907 19.552 612.907 16.432 619.216 14.56 621.227 16.9867 621.712 17.5413 622.544 18.0267 623.029 18.0267 623.653 18.0267 624 18.8587 624 20.3147 624 22.048 623.584 22.7413 622.128 23.3653 618.453 25.0293 615.611 27.04 616.027 27.7333 616.651 28.704 619.008 28.5653 619.632 27.5253 619.979 26.9013 620.88 26.7627 622.267 27.1093 623.445 27.3867 623.792 27.5947 623.168 27.664 622.475 27.664 621.92 28.0107 621.92 28.3573 621.92 30.9227 617.136 32.032 614.432 30.0907Z" fill="#03152A" transform="matrix(1 0 0 -1.00733 328 426)"/><path d="M228.107 23.6427C228.107 19.344 228.384 16.5707 228.869 16.224 230.325 15.3227 230.88 17.68 230.741 23.92 230.533 29.1893 230.325 30.16 229.355 30.368 228.245 30.576 228.107 29.8827 228.107 23.6427Z" fill="#03152A" transform="matrix(1 0 0 -1.00733 328 426)"/><path d="M260.139 23.7813C260.277 18.304 260.555 16.9867 261.387 16.9867 262.219 16.9867 262.496 18.304 262.635 23.7813 262.843 30.16 262.773 30.5067 261.387 30.5067 260 30.5067 259.931 30.16 260.139 23.7813Z" fill="#03152A" transform="matrix(1 0 0 -1.00733 328 426)"/><path d="M342.992 30.0907C342.368 29.4667 342.368 18.5813 342.923 17.056 343.269 16.224 344.309 15.9467 347.013 15.9467 350.48 15.9467 352.837 16.9867 350.688 17.6107 345.349 19.0667 345.627 18.6507 345.28 24.544 344.933 29.6053 344.24 31.3387 342.992 30.0907Z" fill="#03152A" transform="matrix(1 0 0 -1.00733 328 426)"/><path d="M560.005 30.0213C559.797 29.6747 559.797 26.624 560.075 23.2267 560.491 18.3733 560.768 16.9867 561.6 16.9867 562.432 16.9867 562.64 18.1653 562.64 23.5733 562.64 29.12 562.432 30.16 561.461 30.368 560.837 30.5067 560.213 30.2987 560.005 30.0213Z" fill="#03152A" transform="matrix(1 0 0 -1.00733 328 426)"/></g></svg>