<svg width="1780" height="1356" xmlns="http://www.w3.org/2000/svg" xmlns:xlink="http://www.w3.org/1999/xlink" overflow="hidden"><defs><clipPath id="clip0"><rect x="1307" y="418" width="1780" height="1356"/></clipPath></defs><g clip-path="url(#clip0)" transform="translate(-1307 -418)"><path d="M191.875 375.67C184.132 374.122 170.452 357.345 170.452 349.087 170.452 340.054 161.677 313.213 153.418 296.952 139.221 268.82 112.895 244.303 80.1166 228.558 65.6626 221.848 51.9834 218.493 16.6237 213.331-4.28299 210.234-10.4771 179.006 6.81533 164.036 10.6872 160.681 16.1075 158.1 18.946 158.1 27.2059 158.1 59.9846 150.357 69.792 145.97 82.4399 140.292 98.4414 132.033 104.637 127.903 117.541 119.386 143.352 90.9967 151.095 76.802 160.128 60.8002 170.452 32.6683 170.452 24.6674 170.452 12.0211 188.261-4.49679 201.682-4.49679 216.395-4.49679 232.397 15.1181 232.397 33.1845 232.397 36.7976 233.946 42.9914 236.01 46.6055 237.816 50.4761 242.204 59.2518 245.56 66.2203 256.142 87.8998 257.691 89.9644 278.855 109.837 305.181 134.614 329.185 146.744 361.964 151.906 387.774 156.035 391.387 157.584 398.872 165.843 402.744 169.972 403.776 174.876 403.776 185.974 403.26 205.33 397.582 209.718 366.093 215.912 353.189 218.235 339.251 222.107 335.379 224.172 331.25 226.236 326.088 227.785 323.765 227.785 318.603 227.785 285.824 248.689 277.564 257.206 270.595 264.175 255.626 283.532 255.626 285.338 255.626 286.371 253.045 290.758 249.947 295.662 243.495 304.953 233.429 334.117 231.106 349.861 228.267 368.186 210.974 379.799 191.875 375.67Z" fill="#0D0D0D" fill-rule="evenodd" transform="matrix(1 0 0 -1 2264 795)"/><path d="M264.471 224.344C246.638 220.985 228.031 217.368 223.121 216.592 218.211 215.559 213.042 214.008 211.492 212.975 210.199 211.684 204.772 209.617 199.862 208.324 158.512 195.921 101.657 163.882 65.9925 133.134 32.9124 104.711-1.71819 64.6611-1.71819 55.3586-1.71819 51.7414 2.41757 50.1911 18.4398 47.6074 44.8009 43.2145 71.9367 29.779 92.8694 10.9162 108.376-3.03702 117.162-7.68776 117.162-1.48677 117.162 2.90609 140.163 34.9465 156.444 53.2916 191.075 92.5665 244.313 120.99 310.214 135.975 327.012 139.594 334.507 147.086 336.057 161.815 337.608 175.25 330.889 203.673 324.169 212.975 320.034 218.66 301.427 231.321 298.067 230.804 297.292 230.545 282.303 227.704 264.471 224.344Z" fill="#0D0D0D" fill-rule="evenodd" transform="matrix(1 0 0 -1 1862 798)"/><path d="M157.854 401.204C117.811 395.26 56.0664 353.898 31.5234 316.158 19.3813 297.803 16.0225 290.566 6.20592 265.749-2.31953 244.035-2.31953 243.26-2.31953 201.123-2.0607 154.076 0.78045 139.6 17.3147 107.028 43.4077 55.8448 94.0427 16.0353 151.395 1.81787 175.938-4.38689 222.44-4.90387 240.783 0.783905 247.759 2.85183 255.509 4.66076 257.834 4.66076 264.034 4.66076 298.394 20.9471 315.186 31.8037 352.904 55.8448 383.906 99.7901 397.081 147.613 407.157 183.545 403.023 252.565 389.589 277.64 388.039 280.225 384.164 288.239 380.806 294.96 369.438 318.743 367.372 321.328 345.412 343.3 323.711 365.014 303.819 378.715 280.568 388.28 274.109 390.865 264.809 394.742 259.901 397.069 253.183 400.17 240.524 401.204 208.231 401.721 184.722 401.98 162.246 401.721 157.854 401.204Z" fill="#0D0D0D" fill-rule="evenodd" transform="matrix(1 0 0 -1 2003 1121)"/><path d="M44.8868 308.563C39.7369 305.984 37.677 302.117 24.2864 271.433 16.0466 252.868 12.4407 242.296 4.71592 213.416-0.691919 193.563-1.2069 185.827-1.2069 128.327-1.2069 84.2344-0.176934 61.5439 2.141 53.5506 3.94394 47.1042 6.26088 37.3064 7.54884 31.6331 12.9557 7.6539 16.5616-3.17617 19.3935-3.17617 21.1965-3.17617 26.3463 1.72319 31.2392 7.6539 46.9467 27.766 61.1093 39.1108 83.5127 49.6825 100.25 57.6759 109.521 59.9969 138.876 64.1223 149.434 65.412 159.22 67.732 160.249 68.7633 161.536 70.053 160.764 74.4367 158.447 78.8194 156.13 83.2031 154.327 90.9382 154.327 96.0959 154.327 101.253 152.524 109.503 150.464 114.661 142.481 133.742 146.859 188.921 159.734 228.372 162.824 237.654 164.369 247.194 163.597 250.805 161.021 260.603 131.151 288.708 114.156 296.959 89.9505 308.82 56.7324 314.235 44.8868 308.563Z" fill="#0D0D0D" fill-rule="evenodd" transform="matrix(1 0 0 -1 1802 1074)"/><path d="M133.529 437.759C127.584 431.557 127.325 428.974 125.516 388.149 123.706 342.674 120.603 316.578 115.95 308.051 114.399 304.951 113.106 300.817 113.106 298.491 113.106 291.257 90.0965 245.523 78.7218 230.279 59.5907 204.182 42.2686 186.095 21.8453 170.334 10.4696 162.065 0.38703 155.089-0.905054 155.089-5.30032 155.089-3.23219 144.754 3.2312 134.418 17.9671 110.906 23.9135 83.0004 21.3283 46.8267 20.2942 33.3916 17.9671 19.1808 15.899 15.3048 11.7627 7.29483 10.9867-2.52418 14.6069-2.52418 21.8453-2.52418 65.278 21.7645 75.6196 31.8414 77.4287 33.6494 86.4773 41.1426 95.5259 48.6358 122.413 70.5987 154.212 108.064 174.119 140.878 183.425 156.381 202.298 195.138 204.626 204.182 205.66 207.799 207.986 214.775 210.054 219.685 234.097 282.213 238.234 403.395 217.034 427.423 214.449 430.007 208.245 434.917 203.073 438.276 194.543 443.702 190.406 444.477 166.621 444.477 141.286 444.477 139.476 444.219 133.529 437.759Z" fill="#0D0D0D" fill-rule="evenodd" transform="matrix(1 0 0 -1 2353 1296)"/><path d="M89.3117 309.44C53.6487 301.695 28.5812 286.204 8.68288 259.353-4.75559 240.763-5.27242 234.825 6.09776 213.137 43.5701 141.62 97.581 87.4004 168.648 49.9627 215.94 25.1771 254.187 12.2684 315.434 0.907819 349.288-5.28834 425.524-1.41624 458.86 8.65302 501.242 21.0463 505.377 23.3704 511.58 36.5377 525.534 66.7455 526.051 69.0686 526.051 101.343 526.051 131.808 523.726 143.685 514.164 159.434 512.871 161.5 510.804 165.63 509.512 168.471 508.22 171.311 503.568 177.507 498.917 181.897L490.647 189.901 478.76 183.962C444.905 166.922 411.31 159.434 368.412 159.434 331.715 159.434 331.198 159.692 282.356 173.377 257.805 180.348 211.547 208.231 187.255 230.952 170.715 246.443 154.176 267.356 140.996 289.818 134.278 301.179 127.3 311.248 125.749 312.281 121.615 315.12 112.311 314.346 89.3117 309.44Z" fill="#0D0D0D" fill-rule="evenodd" transform="matrix(1 0 0 -1 1834 1336)"/><path d="M9.03585 293.001C-0.828924 287.639-0.614902 291.499-0.614902 145.229L-0.614902 6.25189 4.10346 3.03456C8.17729 0.0321074 20.6153-0.396815 95.0275-0.396815 178.876-0.396815 181.234-0.182765 186.81 4.10728 191.956 8.18163 192.385 9.68327 192.385 25.3393 192.385 41.2103 191.956 42.4979 186.166 47.4301 177.803 54.2936 162.363 55.7945 103.82 55.1515L58.3581 54.7226 57.2855 171.395C56.6418 235.522 55.784 288.282 55.57 288.497 49.1362 295.145 18.2569 298.148 9.03585 293.001Z" fill="#0D0D0D" fill-rule="evenodd" transform="matrix(1 0 0 -1 1308 1769)"/><path d="M5.81216 293.593C3.231 292.52 0.218813 289.73-1.07177 287.369-2.79255 284.58-3.43742 238.867-3.43742 145.727-3.43742 9.01977-3.43742 8.16138 1.08003 3.65437 5.38197-0.63762 6.88723-0.852632 72.4955 0.00576659 132.51 0.864165 140.684 1.29336 149.289 4.94197 178.328 17.1746 197.688 39.4946 202.635 66.3207 203.926 72.7587 205.217 78.9825 205.432 80.0559 206.507 83.9187 200.7 107.741 197.043 115.466 191.88 126.197 179.619 141.22 173.811 143.795 165.637 147.444 165.637 151.951 173.596 158.604 177.468 161.822 183.922 170.621 188.008 178.132 194.892 191.009 195.322 192.726 195.107 214.187 195.107 235.433 194.676 237.365 188.008 249.598 175.101 273.635 158.538 285.223 126.702 292.52 112.075 295.954 13.7712 296.812 5.81216 293.593ZM120.894 233.502C141.545 220.84 141.33 192.941 120.68 180.064 113.796 175.772 110.784 175.557 83.2504 175.986L53.5662 176.631 52.9205 204.315C52.7058 219.767 52.9205 233.502 53.3507 235.004 54.2111 237.15 61.7399 237.794 84.1116 237.794 109.924 237.794 114.656 237.15 120.894 233.502ZM118.743 118.471C122.401 117.613 129.284 113.535 134.231 109.028 142.406 101.517 142.836 100.444 142.836 88.6399 142.836 74.0463 136.598 63.7455 124.982 58.8093 115.947 55.1607 58.0828 52.8006 54.8568 56.0191 52.2756 58.5943 51.4152 110.316 53.7809 116.325 54.8568 119.33 59.5889 119.759 83.6814 119.759 99.3839 119.759 115.086 119.115 118.743 118.471Z" fill="#0D0D0D" fill-rule="evenodd" transform="matrix(1 0 0 -1 2114 1769)"/><path d="M48.1505 274.927C36.3702 273.425 34.6568 269.348 34.0138 241.028L33.3717 215.71 19.4488 212.92C1.02855 209.059-1.96996 205.411-1.96996 186.101-1.96996 173.872-1.11324 170.653 3.17035 165.504 7.45476 160.569 10.4533 159.282 20.7339 158.424L33.3717 157.352 34.4422 100.495C35.5135 48.1432 35.9419 42.7801 40.0117 33.7685 51.149 10.1679 69.3555-0.345904 100.413-0.345904 119.476-0.345904 131.256 3.0876 134.683 9.73884 137.682 15.5311 135.326 38.9175 131.042 44.2815 128.472 47.9291 124.403 49.4313 115.835 50.2895 99.5561 52.0058 93.1307 54.7945 90.3459 61.4457 88.6325 65.3075 88.2041 82.9016 88.4187 112.295L89.0609 157.352 105.554 157.995C120.761 158.639 122.689 159.068 128.686 165.075 134.469 170.868 135.111 173.014 135.111 184.385 135.111 207.128 128.043 213.349 99.7706 214.637L89.0609 215.281 87.9895 241.457C87.1328 261.839 86.0623 268.49 83.4922 271.279 79.8507 274.712 60.7875 276.857 48.1505 274.927Z" fill="#0D0D0D" fill-rule="evenodd" transform="matrix(1 0 0 -1 1728 1771)"/><path d="M82.5135 214.187C60.798 207.78 51.3375 202.656 32.2027 186.639 18.2269 174.681 5.11196 147.56-0.263273 119.158-5.6385 89.475 9.8418 48.9013 35.6426 25.1974 56.0681 6.19135 73.6984-0.214767 105.304-0.214767 137.984-0.214767 154.754 5.3372 175.394 22.6341 210.655 52.531 223.341 105.705 205.925 151.19 187.435 199.666 131.104 228.282 82.5135 214.187ZM131.964 156.529C138.414 152.471 141.424 149.696 148.735 141.367 151.314 138.591 153.249 130.69 154.754 118.304 157.98 89.689 153.034 77.303 132.824 62.1406 125.299 56.5886 106.809 53.172 97.563 55.7345 85.0934 59.1511 69.1831 71.7502 64.0225 82.2148 58.8626 92.8916 55.8527 120.012 59.7226 122.361 61.0126 123.216 62.0879 125.778 62.0879 128.34 62.0879 134.533 74.1283 148.842 85.738 156.102 94.5531 161.868 96.703 162.295 110.463 161.441 120.568 161.014 127.879 159.305 131.964 156.529Z" fill="#0D0D0D" fill-rule="evenodd" transform="matrix(1 0 0 -1 1502 1773)"/><path d="M73.392 212.706C46.5602 203.728 30.2464 191.329 15.4355 168.668 5.56099 153.49 1.48233 141.946-1.5227 119.5-6.03065 87.0055 3.41454 56.4358 25.9535 31.8515 46.7753 8.76398 68.2406-0.214997 102.585-0.214997 138.218-0.214997 155.82 6.83968 179.861 30.7831 202.186 53.0155 214.636 93.8468 209.054 126.341 203.688 157.552 192.74 177.647 172.563 193.68 161.401 202.659 155.82 205.652 135.213 214.416 122.978 219.548 91.423 218.693 73.392 212.706ZM132.422 154.773C145.302 144.939 151.527 132.326 152.6 113.087 153.244 100.474 152.6 94.0602 149.81 86.578 144.657 73.1103 130.491 60.9253 115.036 56.4358 104.303 53.2289 102.37 53.2289 93.5695 56.2224 73.6071 63.0629 61.1569 77.1723 56.4347 98.1221 52.141 118.431 60.9418 141.733 77.6849 153.49 88.2029 160.973 93.3552 162.255 109.24 161.614 122.119 160.973 125.768 159.903 132.422 154.773Z" fill="#0D0D0D" fill-rule="evenodd" transform="matrix(1 0 0 -1 1877 1773)"/><path d="M75.2622 214.434C26.007 197.972-3.54547 158.634-4.18831 108.606-4.6166 76.9645 7.16165 48.7442 30.0761 26.2958 49.778 7.26781 69.9091-0.215014 101.818-0.215014 135.225-0.215014 155.57 7.69538 175.914 28.4336 188.335 41.0472 196.902 54.9444 204.183 73.9715 209.965 89.3647 210.393 129.986 205.039 140.248 203.112 144.096 201.613 148.586 201.613 150.51 201.613 158.42 184.052 183.648 170.989 194.765 159.638 204.173 155.998 206.096 136.939 212.511 118.521 218.711 90.8959 219.566 75.2622 214.434ZM130.514 155.213C135.439 152.006 142.078 145.379 145.29 140.462 150.858 132.337 151.286 129.986 151.286 110.103 151.286 89.5789 150.858 88.082 144.862 78.8889 137.367 67.9856 123.661 57.7231 116.38 57.5098 113.596 57.5098 109.527 56.4404 107.171 55.3719 99.6761 51.3096 74.8339 62.6406 64.9834 74.6133 48.4932 94.4955 50.2063 130.627 68.1951 147.73 81.4728 160.131 87.8979 162.483 105.458 161.841 118.95 161.413 123.233 160.131 130.514 155.213Z" fill="#0D0D0D" fill-rule="evenodd" transform="matrix(1 0 0 -1 2337 1773)"/><path d="M71.358 212.689C51.873 206.272 39.6671 198.572 25.7491 184.241 2.19542 160.07-9.15401 123.707-3.58615 90.3381 0.696188 64.8831 6.47775 52.4775 22.7515 33.44 35.5993 18.4668 48.4463 9.91121 66.6475 3.70798 78.8526-0.356347 83.7776-0.784128 105.618 0.285735 129.387 1.35478 133.883 2.42464 153.798 11.1946 167.287 17.1835 187.843 39.2154 195.766 56.1132 204.545 75.365 207.115 91.6215 205.616 121.139 204.545 143.171 203.903 146.38 196.837 160.497 188.058 177.823 179.921 187.876 167.073 197.503 140.735 217.181 102.407 223.17 71.358 212.689ZM118.894 161.781C129.601 158.359 143.091 145.952 147.588 135.257 151.87 124.99 151.87 94.8294 147.588 84.5627 143.519 74.5094 128.53 59.7497 121.25 58.4664 118.038 57.8251 112.899 56.541 109.687 55.4719 96.8392 51.4076 74.142 61.6752 63.2216 76.6483 55.0843 87.7706 51.0157 109.161 54.6561 122.209 60.4377 143.813 71.7863 156.433 90.4157 161.353 103.477 164.775 108.402 164.99 118.894 161.781Z" fill="#0D0D0D" fill-rule="evenodd" transform="matrix(1 0 0 -1 2565 1773)"/><path d="M75.8632 211.348C70.4951 209.419 62.5504 205.561 58.0419 202.775 47.9501 196.345 43.8701 196.345 42.1525 202.775 39.7902 211.991 23.9008 215.42 6.5089 210.062 0.925604 208.347-2.72406 205.776-4.01315 202.347-6.58967 195.702-6.58967 15.0251-4.01315 8.38092-1.4358 1.73674 2.42899 0.450844 21.3243-0.191691 32.4901-0.406418 37.6431 0.450844 41.9373 3.23735L47.7349 6.88113 47.7349 68.8211 47.7349 130.761 54.8208 139.977C65.5571 153.909 72.2136 157.98 84.4525 157.767 93.0409 157.767 96.262 156.481 101.63 151.337 105.281 147.907 109.36 142.764 110.434 139.763 111.936 136.334 112.581 114.044 112.366 79.7516 111.936 22.9552 113.44 7.95229 120.096 3.02345 125.249-0.835048 162.181 0.23694 166.261 4.30934 168.408 6.4525 169.267 22.5266 170.126 70.7504 171.415 142.12 170.984 139.977 187.948 152.623 194.604 157.552 199.114 159.052 206.629 159.052 217.794 159.052 223.807 155.623 230.034 145.335 234.328 138.477 234.542 135.262 234.542 74.6081L234.542 10.9535 240.125 5.59523C245.278 0.23694 246.567 0.0222131 263.744 0.66557 279.204 1.30811 282.64 2.16537 285.216 5.80914 288.008 9.45291 288.437 21.6693 287.793 86.3958L287.149 162.481 279.634 177.056C266.75 202.347 247.211 214.563 218.653 214.777 199.114 214.777 181.721 208.347 167.979 196.131 162.396 191.201 157.028 186.915 156.384 186.915 155.525 186.915 151.016 190.773 146.077 195.488 132.764 208.134 120.31 213.277 101.415 214.134 90.6795 214.563 82.3054 213.706 75.8632 211.348Z" fill="#0D0D0D" fill-rule="evenodd" transform="matrix(1 0 0 -1 2798 1770)"/></g></svg>