<svg width="734" height="720" xmlns="http://www.w3.org/2000/svg" xmlns:xlink="http://www.w3.org/1999/xlink" overflow="hidden"><defs><clipPath id="clip0"><rect x="273" y="0" width="734" height="720"/></clipPath></defs><g clip-path="url(#clip0)" transform="translate(-273 0)"><path d="M317.702 717.449C294.529 715.857 273.029 713.097 246.592 708.158 216.056 702.552 190.54 695.858 153.312 683.636 129.134 675.688 104.12 667.067 93.9134 663.05 92.3239 662.38 84.6273 659.62 76.7633 656.775 68.9829 653.929 59.9476 650.582 56.6851 649.243 53.5059 647.904 45.3908 644.639 38.6981 642.043 23.3049 636.103 5.0671 628.404 3.97955 627.4 3.56124 626.98 2.55732 626.645 1.80439 626.645 0.214858 626.645-1.12369 625.224-0.287099 624.387-0.0361206 624.134 1.97171 624.554 4.14686 625.306 6.32199 626.061 15.8592 628.906 25.3127 631.666 42.0446 636.52 47.8171 638.279 53.757 640.035 58.7766 641.459 66.5569 643.549 69.6521 644.219 71.2418 644.554 75.592 645.725 79.2729 646.729 82.9542 647.737 87.3043 648.908 88.894 649.243 90.4835 649.66 94.2481 650.497 97.2599 651.166 135.074 660.037 163.853 666.062 189.285 670.581 193.635 671.336 199.91 672.422 203.089 673.092 210.786 674.598 221.996 676.525 232.37 678.113 236.971 678.783 244.166 679.954 248.265 680.624 265.75 683.469 301.389 687.906 325.65 690.249 358.863 693.511 411.737 693.429 432.318 690.164 464.191 685.143 478.077 678.448 497.236 658.783 525.26 629.91 536.389 598.192 536.471 547.14 536.471 532.746 534.715 503.207 533.209 493.162 532.707 489.982 531.788 483.204 531.033 478.098 530.282 473.077 529.195 466.047 528.526 462.618 527.856 459.185 526.767 452.992 526.015 448.808 525.26 444.706 523.17 433.577 521.247 424.119 519.405 414.664 517.564 405.206 517.147 403.031 516.813 400.769 516.311 398.679 516.058 398.344 515.808 397.924 515.221 395.414 514.722 392.654 510.203 367.295 491.631 292.896 483.348 267.204 482.763 265.363 481.09 259.923 479.583 255.069 464.943 206.781 444.195 158.326 423.447 123.93 408.14 98.4047 395.925 82.5038 378.022 64.5944 348.489 35.1361 321.718 20.4908 284.239 13.1262 268.678 10.1134 235.298 11.4525 218.482 15.7206 216.391 16.2227 213.547 16.5575 212.208 16.3901L209.782 16.0553 211.873 15.1347C214.718 13.9631 218.984 12.4567 224.004 11.034 227.769 9.94606 231.701 8.94181 246.174 5.25951 250.775 4.17157 260.229 2.4978 273.781 0.489282 283.82-0.933422 309.254-0.682358 318.204 0.907723 324.564 2.07936 333.264 4.25525 340.291 6.43114 345.896 8.10492 358.361 14.0468 366.559 18.9844 388.396 31.9561 409.476 51.3718 430.309 77.65 436.164 85.0147 438.675 88.3621 448.212 102.338 451.809 107.527 467.033 132.633 467.033 133.303 467.033 133.47 468.205 135.646 469.629 138.073 477.493 151.296 494.558 187.784 502.172 207.367 513.55 236.741 523.757 266.535 527.521 281.431 527.771 282.352 528.86 286.285 530.029 290.219 532.874 299.843 535.3 309.887 541.072 336.246 547.515 365.454 551.866 400.018 556.3 458.434 558.391 486.05 558.391 550.32 556.3 567.228 554.459 581.872 550.61 601.29 548.184 607.817 547.849 608.736 546.93 611.581 546.094 614.092 540.488 632.168 528.943 651.166 515.221 664.723 504.013 675.937 484.939 690.249 472.055 697.197 440.85 714.101 381.869 721.8 317.702 717.449Z" fill="#011248" fill-rule="evenodd" transform="matrix(1 0 0 -1.00084 448.892 719.391)"/><path d="M543.662 664.002C529.609 663.333 505.008 661.157 495.557 659.9 492.376 659.398 485.347 658.479 480.076 657.724 464.346 655.548 452.633 653.625 425.276 648.939 419.503 647.935 400.593 644.17 393.481 642.579 390.304 641.827 385.116 640.738 382.021 640.068 364.785 636.471 361.772 635.802 348.303 632.622 345.123 631.867 340.187 630.695 337.427 630.026 334.664 629.442 327.552 627.768 321.53 626.344 310.903 623.751 306.302 622.747 295.174 620.151 292.162 619.481 287.31 618.395 284.298 617.64 279.11 616.469 273.254 615.215 260.871 612.537 257.859 611.868 248.656 609.774 240.373 607.851 232.09 605.927 223.723 604.086 221.799 603.666 215.858 602.495 180.802 593.877 170.511 591.113 144.073 584.002 104.75 570.612 90.359 563.75 80.6536 559.149 64.6732 546.51 49.6135 531.365 25.6011 507.349 10.7921 483.414 3.76412 457.308 0.333787 444.587-0.502878 437.725-0.419211 422.16-0.419211 399.817 2.17445 385.843 10.6247 361.909 15.2264 348.854 25.35 327.013 32.3782 315.215 33.8005 312.787 34.9718 310.611 34.9718 310.444 34.9718 310.027 51.1195 283.164 54.5497 277.808 62.9165 265.005 65.3427 261.072 70.1116 252.703 73.04 247.682 77.056 240.904 79.1475 237.64 81.2394 234.461 84.2512 229.691 85.8409 227.18 92.7853 216.385 110.773 192.703 122.821 178.31 133.112 166.008 153.694 143.833 165.575 132.117 225.982 72.7865 291.66 31.3639 358.342 10.5269 377.669 4.50181 410.468-0.435434 431.718-0.435434 460.5-0.435434 486.938 4.83655 505.596 14.2926 528.687 26.0918 551.778 47.7654 572.027 76.8031 580.393 88.8536 591.436 107.598 599.972 124.418 611.518 147.096 617.792 161.49 628.583 189.523 629.171 191.113 630.51 194.544 631.596 197.055 632.6 199.565 633.939 203.163 634.527 205.005 635.111 206.846 636.785 211.532 638.206 215.465 641.635 224.753 649.082 247.097 652.429 258.143 653.936 262.996 655.609 268.436 656.194 270.277 656.781 272.118 658.455 277.808 659.876 282.829 665.146 301.406 669.833 318.061 670.25 319.649 670.417 320.568 671.421 324.168 672.343 327.598 673.262 331.03 675.438 339.314 677.112 346.009 678.701 352.703 680.627 360.068 681.211 362.326 684.473 374.209 689.662 396.637 693.344 415.048 697.693 436.386 699.451 447.013 703.383 474.879 706.645 497.474 706.731 542.411 703.551 557.055 703.131 559.063 702.126 563.668 701.375 567.35 697.108 587.097 686.232 611.868 675.606 626.344 671.254 632.119 659.876 643.501 654.021 647.849 643.476 655.634 634.274 658.728 610.596 662.411 598.38 664.252 564.748 665.089 543.662 664.002ZM409.798 573.71 419.418 573.205 419.25 568.604C419.083 566.093 418.413 560.99 417.747 557.307 415.988 548.352 414.4 539.231 412.306 527.181 411.302 521.657 410.215 515.297 409.798 512.954 409.296 510.696 407.79 502.577 406.366 494.963 405.027 487.349 403.356 478.561 402.687 475.298 402.099 472.118 400.928 466.26 400.258 462.329 399.507 458.394 397.918 450.527 396.829 444.755 395.657 438.979 393.734 429.606 392.562 423.833 391.476 418.06 390.137 412.035 389.802 410.444 389.382 408.855 388.378 404.671 387.626 401.238 384.279 386.01 382.021 378.561 378.004 369.775 375.579 364.334 369.553 354.712 366.54 351.45 365.704 350.528 360.6 344.755 355.08 338.644 349.642 332.537 343.2 325.924 340.857 323.916 327.05 312.203 305.465 301.992 282.624 296.385 269.405 293.122 267.146 292.703 244.556 289.105 241.795 288.687 235.186 287.933 229.915 287.431 224.644 287.013 216.695 286.26 212.344 285.758 207.994 285.256 181.053 284.67 152.523 284.419 123.993 284.252 96.3828 283.666 91.2792 283.164 82.0759 282.327 78.4784 282.578 78.4784 284.084 78.4784 285.842 88.5182 296.469 117.718 325.757 134.786 342.914 149.762 357.305 150.933 357.725 152.105 358.227 160.806 358.561 170.344 358.561 179.882 358.561 195.946 359.146 206.07 359.815 249.492 362.661 274.007 368.269 282.875 377.389 290.991 385.758 299.441 410.276 309.397 454.797 312.577 469.188 315.422 483.5 321.11 515.048 327.887 552.286 331.319 569.191 332.741 571.784 334.496 575.046 337.594 575.213 372.146 574.711 387.541 574.462 404.528 574.042 409.798 573.71ZM617.54 572.873C626.243 572.453 632.853 571.784 633.355 571.281 634.359 570.277 633.939 567.35 631.094 551.449 630.424 547.767 628.751 538.142 627.33 530.111 625.991 522.077 624.317 512.452 623.565 508.77 622.141 500.821 620.385 490.779 618.544 479.9 617.792 475.548 616.703 469.106 616.034 465.673 615.449 462.243 614.363 456.218 613.608 452.286 612.939 448.352 611.767 441.575 611.015 437.223 609.591 429.271 608.338 422.16 605.994 408.77 605.243 404.838 604.153 398.645 603.484 394.963 600.556 378.813 599.637 373.625 598.38 367.347 597.629 363.665 597.209 359.733 597.294 358.561L597.629 356.468 628.501 356.468C661.966 356.468 662.134 356.468 658.202 352.119 657.116 350.948 650.339 344.922 643.227 338.644 636.115 332.284 629.922 326.761 629.42 326.259 628.334 325.087 616.368 316.22 611.015 312.537 608.754 311.031 598.213 304 587.757 296.887L568.68 284.084 532.704 284.084C502.081 284.084 496.725 284.252 496.308 285.256 495.724 286.846 498.986 308.268 505.596 345.592 506.265 349.274 507.352 355.798 508.106 360.068 510.279 373.123 511.953 382.998 513.124 389.525 513.794 392.955 514.883 399.397 515.635 403.749 517.141 412.452 518.815 422.327 520.656 432.619 521.326 436.301 522.412 442.828 523.164 447.098 524.755 456.805 526.764 468.436 528.185 476.552 528.854 479.985 529.941 486.26 530.695 490.362 531.365 494.546 533.288 505.088 534.962 513.791 536.636 522.579 538.477 532.536 539.061 536.051 539.73 539.648 540.652 544.167 541.069 546.094 541.489 548.102 542.494 552.956 543.245 556.888 546.091 571.616 546.173 571.701 554.541 572.788 560.984 573.625 599.719 573.625 617.54 572.873ZM444.435 397.809C451.127 394.711 455.813 387.599 455.813 380.569 455.813 374.711 451.882 368.269 445.856 364 441.675 361.154 441.59 359.566 445.105 354.964 451.38 346.845 452.466 346.429 454.14 351.532 455.229 354.797 455.899 354.879 463.762 353.206 468.531 352.201 468.783 352.034 469.033 349.523 469.2 348.017 468.196 344.335 466.607 340.571 463.595 333.288 463.68 332.954 470.621 328.602 472.63 327.348 474.471 325.674 474.723 324.838 475.225 323.164 467.779 313.122 465.685 312.705 465.016 312.537 462.174 314.211 459.328 316.302 454.392 319.899 450.628 320.988 449.538 319.232 448.367 317.306 439.332 313.958 433.224 313.207 428.036 312.537 425.358 312.62 420.255 313.624 406.451 316.469 398.919 325.087 398.919 337.975 398.919 347.348 403.606 355.132 412.559 360.819 414.232 361.909 415.653 363.163 415.653 363.665 415.653 364.085 414.147 367.265 412.306 370.612 409.464 375.716 408.962 377.474 408.962 381.574 408.962 390.529 414.902 397.306 425.276 399.899 429.125 400.903 440.586 399.65 444.435 397.809ZM613.776 261.072C614.53 260.82 614.78 259.481 614.612 257.139L614.363 253.54 365.119 253.289C181.555 253.205 115.626 253.373 114.789 254.042 113.283 255.298 113.283 259.398 114.706 260.82 115.626 261.741 159.216 261.825 364.283 261.657 500.909 261.49 613.191 261.239 613.776 261.072ZM341.359 237.222C342.865 237.222 346.127 232.452 346.964 229.105 348.72 222.159 345.793 215.548 339.935 213.289 333.912 211.03 327.385 213.122 324.792 218.059 323.036 221.574 323.286 230.193 325.294 233.456 327.719 237.389 332.573 239.063 337.844 237.891 339.432 237.557 341.024 237.222 341.359 237.222ZM481.415 235.465C483.673 233.289 483.841 230.276 481.668 229.858 480.913 229.691 478.822 230.527 477.149 231.699 473.299 234.377 472.964 234.377 470.454 231.783 466.273 227.682 468.363 217.975 473.299 217.975 474.221 217.975 476.062 218.979 477.483 220.151 482.587 224.419 485.849 220.067 480.913 215.465 478.737 213.456 477.483 212.954 474.303 212.954 472.213 212.954 469.535 213.456 468.363 214.042 461.337 217.557 460.332 230.193 466.607 235.883 470.29 239.23 477.651 238.979 481.415 235.465ZM539.481 236.469C541.906 234.712 542.743 230.778 540.82 230.025 540.065 229.691 538.391 230.444 536.885 231.699 535.464 232.871 534.043 233.875 533.623 233.875 531.782 233.875 530.275 232.703 530.275 231.364 530.275 230.193 531.447 229.44 534.962 228.436 540.233 226.929 543.662 223.833 543.662 220.569 543.662 216.134 538.811 212.117 533.456 212.117 527.433 212.117 521.743 217.64 524.421 220.82 525.842 222.578 526.678 222.494 528.437 220.402 531.447 216.72 536.97 216.72 536.97 220.486 536.97 221.574 535.799 222.41 532.619 223.414 526.596 225.423 524.421 227.515 524.421 231.364 524.421 237.808 533.288 240.737 539.481 236.469ZM203.476 237.557C204.229 237.306 204.815 236.553 204.815 235.967 204.815 234.461 202.89 233.875 198.121 233.875 195.528 233.875 193.603 233.373 192.683 232.536 190.591 230.444 192.599 228.854 197.201 228.854 205.902 228.854 206.07 224.084 197.452 223.665 192.767 223.414 192.683 223.331 192.683 220.904 192.683 218.394 192.767 218.394 198.456 217.808 204.647 217.222 205.986 216.553 205.149 214.377 204.731 213.205 203.309 212.954 196.03 212.954 190.424 212.954 187.161 213.289 186.743 213.875 185.739 215.548 186.408 236.72 187.496 237.389 188.667 238.143 201.635 238.31 203.476 237.557ZM213.851 237.055C214.52 236.385 214.854 233.122 214.854 228.101 214.854 223.665 215.189 219.649 215.524 219.063 215.858 218.561 218.369 217.808 221.129 217.389 225.313 216.804 226.15 216.469 226.15 215.046 226.15 213.54 225.48 213.373 218.787 213.122 214.018 212.954 210.922 213.205 210.169 213.875 209.249 214.628 208.998 217.389 208.998 225.423 208.998 235.883 209.5 238.059 211.926 238.059 212.428 238.059 213.265 237.64 213.851 237.055ZM247.903 235.967C247.903 234.544 247.234 234.21 242.715 233.875 237.277 233.456 235.186 232.285 236.022 230.276 236.357 229.44 238.197 228.937 241.628 228.687 250.413 228.017 250.329 223.833 241.544 223.833 237.026 223.833 236.608 223.665 236.106 221.824 235.353 218.645 236.273 217.975 241.544 217.975 246.899 217.975 249.576 216.636 248.656 214.377 248.237 213.122 246.899 212.954 239.536 212.954 232.006 212.954 230.835 213.122 230.5 214.461 230.166 216.134 230.751 235.465 231.253 237.055 231.504 237.808 233.596 238.059 239.703 237.891 247.234 237.64 247.903 237.473 247.903 235.967ZM270.911 235.883C272.584 234.461 273.421 233.038 273.254 231.866 272.919 229.272 270.493 229.272 267.146 231.866 264.469 233.875 263.967 233.959 261.708 233.038 258.863 231.866 258.11 230.025 258.194 224.67 258.277 218.394 263.548 215.799 267.564 220.067 271.162 223.917 274.927 221.908 272.501 217.389 270.995 214.628 267.564 212.954 263.13 212.954 260.202 212.954 258.863 213.456 256.269 215.716 253.592 218.059 253.09 219.063 252.755 222.745 251.668 233.289 255.182 237.975 263.967 238.059 267.397 238.059 268.819 237.64 270.911 235.883ZM295.593 236.05C295.593 235.046 294.589 234.21 292.664 233.54L289.736 232.62 289.568 224.67C289.234 214.209 288.899 212.954 286.473 212.954 283.796 212.954 283.461 214.209 283.461 223.749 283.461 232.369 282.875 233.875 279.529 233.875 277.186 233.875 276.015 236.218 277.688 237.306 278.357 237.724 282.624 237.975 287.226 237.891 294.756 237.64 295.593 237.473 295.593 236.05ZM317.933 235.549C319.856 233.122 319.603 228.017 317.431 225.59 315.59 223.582 315.757 222.075 318.182 218.812 321.11 214.879 320.942 212.954 317.765 212.954 315.757 212.954 314.668 213.791 311.907 217.64 309.229 221.155 307.976 222.159 306.637 221.992 305.298 221.824 304.713 221.072 304.546 219.23 304.126 214.461 303.541 212.954 302.035 212.954 299.023 212.954 298.521 214.628 298.521 225.674 298.521 238.477 298.27 238.226 308.813 237.891 315.59 237.64 316.426 237.473 317.933 235.549ZM375.828 236.301C378.257 234.377 378.756 231.03 376.665 230.193 375.828 229.858 374.322 230.527 372.815 231.783 369.806 234.377 366.793 234.293 366.458 231.615 366.206 230.109 366.875 229.607 370.643 228.519 376.832 226.762 378.841 224.67 378.841 220.067 378.841 215.967 376.665 213.54 372.146 212.536 366.708 211.364 359.596 215.214 359.596 219.314 359.596 222.41 361.857 222.745 364.535 220.151 367.545 217.222 372.398 217.306 372.815 220.151 373.068 221.741 372.313 222.243 367.797 223.749 363.78 225.088 362.107 226.176 361.02 228.017 359.179 231.03 359.849 234.126 362.694 236.385 365.704 238.728 372.815 238.728 375.828 236.301ZM401.013 235.967C401.013 234.544 400.343 234.21 395.824 233.875 390.304 233.456 388.296 232.285 389.133 230.193 389.549 229.188 390.888 228.854 394.151 228.854 399.507 228.854 402.352 227.264 400.678 225.172 399.841 224.251 398.168 223.833 394.738 223.833 389.635 223.833 388.296 222.829 389.3 219.565 389.717 218.226 390.721 217.975 395.073 217.975 400.678 217.975 402.936 216.72 401.932 214.209 401.597 213.205 399.756 212.954 392.644 212.954 384.866 212.954 383.862 213.122 383.777 214.461 383.527 219.147 383.944 236.636 384.364 237.306 384.614 237.808 388.378 237.975 392.897 237.891 400.343 237.64 401.013 237.473 401.013 235.967ZM424.774 236.05C427.284 233.791 427.117 228.854 424.439 225.674L422.348 223.247 424.856 219.565C428.203 214.544 428.203 212.787 424.688 213.122 422.43 213.289 421.426 214.209 419.001 217.724 416.658 221.323 415.653 222.075 413.98 221.908 412.139 221.741 411.804 221.239 411.469 217.557 411.137 214.377 410.717 213.289 409.464 213.122 406.451 212.536 406.031 214.209 406.284 225.758 406.451 231.783 406.786 237.055 407.035 237.473 407.288 237.891 410.97 238.059 415.236 237.891 421.426 237.724 423.352 237.306 424.774 236.05ZM434.645 235.549C435.233 234.377 436.572 231.197 437.576 228.436 438.662 225.674 439.916 223.582 440.336 223.833 440.838 224 442.01 226.929 443.096 230.193 445.272 237.389 446.611 238.728 449.624 237.306 451.212 236.636 451.547 236.05 450.96 235.298 450.543 234.795 448.787 229.942 446.946 224.67 445.187 219.398 443.431 214.544 443.014 214.042 442.594 213.456 441.173 212.954 439.834 212.954 436.989 212.954 436.07 214.461 432.302 225.256 428.705 235.632 428.791 235.381 429.375 236.887 430.129 238.812 433.392 237.975 434.645 235.549ZM458.157 237.055C459.243 235.967 459.663 216.804 458.659 214.293 457.989 212.536 454.474 212.536 453.805 214.293 453.555 215.046 453.303 220.235 453.303 225.841 453.303 235.8 453.805 238.059 456.233 238.059 456.735 238.059 457.569 237.64 458.157 237.055ZM492.626 236.469C493.63 234.544 493.715 215.548 492.711 213.959 492.376 213.289 491.12 212.954 490.033 213.122 488.025 213.373 488.025 213.456 487.775 224.586 487.523 235.8 488.025 238.059 490.618 238.059 491.205 238.059 492.124 237.306 492.626 236.469ZM515.72 236.218C523.331 230.946 522.412 217.473 514.214 213.791 504.674 209.44 496.81 214.628 496.81 225.256 496.81 230.862 498.986 235.13 502.668 236.971 506.098 238.728 512.622 238.31 515.72 236.218ZM278.441 194.879C283.126 190.946 280.198 186.511 275.429 190.276 270.325 194.293 265.054 191.03 265.054 183.917 265.054 177.975 269.656 174.544 274.341 176.971 276.517 178.226 276.349 179.23 273.672 180.485 272.333 181.071 271.329 182.159 271.329 182.829 271.329 184.419 279.696 185.088 281.453 183.582 282.875 182.41 283.043 177.557 281.704 175.13 279.529 171.113 269.405 169.774 264.385 172.787 261.289 174.711 258.361 180.151 258.361 184.084 258.361 188.017 261.289 193.456 264.385 195.381 268.568 197.892 275.094 197.724 278.441 194.879ZM303.876 196.553C304.628 196.301 305.216 195.381 305.216 194.544 305.216 192.619 303.625 192.034 298.103 192.034 293.083 192.034 290.824 190.444 292.664 188.268 293.417 187.431 295.258 187.013 298.688 187.013 303.625 187.013 303.625 187.013 303.374 184.753 303.123 182.494 302.871 182.41 297.684 181.992 293.166 181.657 292.246 181.322 291.995 179.983 291.493 177.473 294.17 176.134 299.441 176.134 304.796 176.134 307.054 174.628 305.216 172.368 303.792 170.695 288.314 170.527 286.975 172.201 286.473 172.787 286.055 177.64 286.055 183.917 286.055 197.138 285.971 197.055 295.593 197.055 299.441 197.055 303.123 196.804 303.876 196.553ZM314.585 196.05C315.255 195.465 317.263 192.619 319.019 189.774 320.775 186.845 322.534 184.502 322.869 184.502 323.286 184.502 323.62 186.594 323.62 189.189 323.62 194.209 324.71 197.055 326.548 197.055 328.809 197.055 329.478 193.791 329.478 183.414 329.478 174.963 329.226 172.787 328.139 171.95 325.878 170.025 322.869 171.95 320.273 176.72 315.672 185.507 314.585 185.674 314.251 177.64 313.998 172.368 313.749 171.531 312.41 171.28 309.315 170.695 308.813 172.954 309.229 184.67 309.482 191.532 309.984 196.05 310.568 196.385 311.907 197.306 313.079 197.222 314.585 196.05ZM352.067 195.799C353.909 193.54 351.651 192.034 346.295 192.034 340.939 192.034 339.098 190.946 340.437 188.519 341.106 187.347 342.278 187.013 346.127 187.013 349.557 187.013 351.148 186.678 351.483 185.841 352.402 183.498 350.144 182.076 344.956 181.824 340.771 181.573 339.935 181.322 339.685 179.983 339.183 177.473 341.861 176.134 347.131 176.134 352.15 176.134 354.158 174.879 353.239 172.452 352.819 171.364 351.316 171.113 344.204 171.113 338.681 171.113 335.333 171.448 334.664 172.117 333.41 173.372 333.243 193.121 334.496 195.465 335.251 196.887 336.338 197.055 343.2 197.055 349.14 197.055 351.316 196.72 352.067 195.799ZM373.82 195.799C378.421 193.372 379.343 188.686 375.913 184.67 374.742 183.247 373.82 181.908 373.82 181.573 373.82 180.569 378.923 174.46 379.76 174.46 380.18 174.46 380.764 175.13 381.017 175.967 381.768 178.143 386.287 189.44 388.128 193.54 389.3 196.218 390.137 197.055 391.725 197.055 392.812 197.055 394.069 196.553 394.571 195.967 395.322 195.13 403.858 174.963 404.108 173.624 404.61 169.942 400.511 170.276 397.583 174.042 395.824 176.385 394.82 176.971 392.477 176.971 389.047 176.971 386.369 175.716 386.369 174.042 386.369 172.201 383.527 171.113 378.506 171.113 373.403 171.113 373.485 171.113 368.802 177.64 365.287 182.578 363.446 182.159 363.111 176.385 362.861 171.866 361.522 170.444 358.428 171.615 357.256 172.034 357.089 173.707 357.089 183.582 357.089 191.364 357.423 195.381 358.093 196.05 359.596 197.557 370.81 197.306 373.82 195.799ZM412.306 187.18C412.808 176.469 412.975 176.134 419.083 176.134 423.185 176.134 425.443 174.628 424.521 172.368 423.937 170.695 408.794 170.527 407.455 172.201 406.451 173.372 406.618 194.46 407.705 196.134 408.039 196.72 409.129 197.055 410.048 196.887 411.804 196.636 411.889 196.05 412.306 187.18ZM446.191 194.544C446.191 192.536 445.942 192.452 440.336 192.034 434.731 191.615 434.478 191.532 434.478 189.523 434.478 187.515 434.813 187.431 439.916 187.013 444.35 186.678 445.354 186.343 445.607 185.005 446.024 182.745 444.35 181.992 438.912 181.992 434.143 181.992 434.061 181.992 434.061 179.565 434.061 176.636 435.148 176.134 441.173 176.134 445.856 176.134 447.865 174.879 446.946 172.452 446.444 171.28 445.187 171.113 437.491 171.28L428.623 171.531 428.371 183.582C428.203 192.703 428.456 195.883 429.207 196.385 429.795 196.72 433.894 196.971 438.242 196.887 446.109 196.636 446.191 196.636 446.191 194.544ZM466.689 194.879C471.376 190.946 468.448 186.511 463.68 190.276 460.749 192.536 457.487 192.619 457.487 190.36 457.487 188.519 459.83 187.013 462.676 187.013 465.016 187.013 470.037 182.745 470.122 180.569 470.372 177.055 469.787 175.548 467.444 173.456 465.436 171.531 464.179 171.113 460.835 171.113 455.646 171.113 453.135 172.285 451.294 175.381 450.126 177.389 450.041 178.143 450.792 179.063 452.299 180.82 453.723 180.653 456.316 178.226 459.83 174.963 465.101 176.05 463.68 179.732 463.178 181.155 462.423 181.49 457.737 182.41 453.805 183.163 450.543 187.431 451.127 190.695 452.384 196.971 461.251 199.398 466.689 194.879Z" fill="#011248" fill-rule="evenodd" transform="matrix(1 0 0 -1.00084 273.609 698.985)"/><path d="M1.39476 12.785C-0.508578 11.0071-0.756839 10.1605-0.343069 7.95931 0.236207 4.9115 2.30505 1.77901 4.7049 0.0857727 6.93925-1.43814 9.75289 0.00111105 12.3182 3.89556 14.8008 7.70533 14.7181 9.56787 11.8217 12.531 8.67708 15.7482 4.62216 15.8329 1.39476 12.785Z" fill="#011248" fill-rule="evenodd" transform="matrix(1 0 0 -1.00084 699.949 325.888)"/><path d="M5.8245 22.8181C1.8226 20.3914-0.511834 15.8727-0.511834 10.6009-0.511834 6.6679-0.178343 5.66376 1.8226 3.57177 4.82401 0.391932 8.90928-0.946942 13.4948-0.277505 17.9135 0.391932 22.5824 3.4044 22.9159 5.74745 23.166 7.58838 12.5777 22.1487 9.90976 23.5712 8.74254 24.157 7.65871 23.9896 5.8245 22.8181Z" fill="#011248" fill-rule="evenodd" transform="matrix(1 0 0 -1.00084 690.211 371.269)"/><path d="M1.94523 13.3716C-0.0695158 11.6449-0.405307 10.7405-0.405307 7.28714-0.405307 2.27158 1.52549-0.277312 5.47104-0.277312 9.41659-0.277312 11.7671 2.60047 11.7671 7.45159 11.7671 10.4116 11.3474 11.7272 9.66844 13.2894 7.14999 15.8383 4.96734 15.9205 1.94523 13.3716Z" fill="#011248" fill-rule="evenodd" transform="matrix(1 0 0 -1.00084 603.178 480.305)"/><path d="M0.892601 4.43236C-1.38819 2.6457-0.410705 0.0933409 2.60319-0.246974 7.73497-0.757447 10.6674 2.98602 6.43166 4.68759 3.66212 5.79361 2.60319 5.79361 0.892601 4.43236Z" fill="#011248" fill-rule="evenodd" transform="matrix(1 0 0 -1.00084 578.529 470.254)"/><path d="M0.6533 4.47828C-0.452764 3.64185-0.708009 2.80544-0.367682 1.55079 0.142808 0.128867 0.908544-0.289347 3.461-0.289347 8.56592-0.289347 10.4377 2.80544 6.52396 4.56194 3.71626 5.81658 2.5251 5.81658 0.6533 4.47828Z" fill="#011248" fill-rule="evenodd" transform="matrix(1 0 0 -1.00084 685.647 470.254)"/><path d="M3.32725 14.5339C2.23009 14.0401 0.795343 12.394 0.120171 10.8302-2.91811 3.58738 4.08682-3.40854 9.91019 1.20055 11.4293 2.35282 11.7669 3.58738 11.8513 7.04418 11.9357 10.9125 11.5981 11.7356 9.57258 13.3817 7.12509 15.5216 6.28112 15.6862 3.32725 14.5339Z" fill="#011248" fill-rule="evenodd" transform="matrix(1 0 0 -1.00084 776.332 480.305)"/><path d="M-0.0848062 3.55941C-1.16461 0.739204 0.247442-0.45725 3.90216-0.200867 7.05851 0.0555162 7.47384 0.311898 7.47384 2.19204 7.47384 4.07218 7.05851 4.32856 3.90216 4.58494 1.32725 4.75588 0.247442 4.49949-0.0848062 3.55941Z" fill="#011248" fill-rule="evenodd" transform="matrix(1 0 0 -1.00084 636.957 511.371)"/><path d="M-0.284293 2.92915C-0.903681 0.717208 0.489942-1.08511 1.72872 0.225666 2.73523 1.29067 2.34811 3.91223 1.10933 4.32184 0.644791 4.48571 0.0254015 3.83031-0.284293 2.92915Z" fill="#011248" fill-rule="evenodd" transform="matrix(1 0 0 -1.00084 664.954 516.244)"/><path d="M-0.0985785 0.193704C0.665323 0.00639125 2.02337 0.00639125 2.87215 0.193704 3.63604 0.474675 2.95702 0.661985 1.34434 0.661985-0.268334 0.661985-0.947356 0.474675-0.0985785 0.193704Z" fill="#011248" fill-rule="evenodd" transform="matrix(1 0 0 -1.00084 654.303 701.421)"/></g></svg>