<svg width="420" height="580" xmlns="http://www.w3.org/2000/svg" xmlns:xlink="http://www.w3.org/1999/xlink" overflow="hidden"><defs><clipPath id="clip0"><rect x="430" y="38" width="420" height="580"/></clipPath></defs><g clip-path="url(#clip0)" transform="translate(-430 -38)"><path d="M208.334 564.487C206.89 563.136 202.138 558.384 197.759 553.912 193.427 549.439 186.811 542.684 183.084 538.911 179.404 535.091 176.19 531.69 176.003 531.317 175.77 530.991 175.677 520.323 175.724 507.698L175.863 484.731 177.075 484.591C179.311 484.312 179.404 485.569 179.357 507.325L179.311 527.125 180.708 529.314C182.059 531.457 183.737 532.482 184.529 531.69 184.808 531.41 185.041 522.419 185.134 510.447 185.181 498.986 185.414 489.483 185.6 489.296 185.786 489.063 186.252 489.343 186.625 489.855 187.231 490.647 187.324 494.141 187.231 512.916 187.137 532.808 187.231 535.231 187.929 536.582 188.349 537.42 188.861 538.072 189.047 538.072 190.585 538.026 190.585 537.513 190.538 515.664 190.492 491.719 190.445 491.998 193.287 492.651 196.408 493.349 196.315 492.604 196.594 520.835L196.827 546.225 199.576 549.626C202.324 552.98 202.79 553.399 203.349 552.514 203.536 552.235 203.629 540.029 203.582 525.354 203.582 510.726 203.676 498.008 203.862 497.169 204.095 495.958 204.374 495.679 205.166 495.772L206.145 495.912 206.378 526.193C206.61 555.682 206.657 556.521 207.589 558.104 208.334 559.362 208.8 559.735 209.918 559.735L211.269 559.735 211.502 525.494C211.642 506.673 211.828 491.253 211.875 491.206 211.921 491.16 212.341 490.741 212.806 490.275 213.226 489.762 216.533 487.619 220.12 485.43 223.708 483.287 228.32 480.538 230.369 479.28 232.419 478.069 234.236 476.671 234.422 476.252 234.562 475.786 234.749 446.018 234.749 410.146 234.795 358.435 234.655 344.739 234.236 344.366 233.071 343.435 229.298 342.922 228.413 343.574 227.621 344.18 227.574 347.488 227.574 407.724 227.574 479.886 228.04 472.525 223.288 475.181 221.798 476.019 217.465 478.628 213.598 481.004 204.561 486.548 203.07 487.293 200.834 487.293 199.063 487.293 192.169 484.032 175.631 475.32 166.639 470.569 158.44 466.329 151.033 462.556 146.84 460.459 142.787 458.13 142.042 457.431L140.691 456.173 140.691 447.835C140.598 399.944 140.085 359.833 139.573 359.274 139.247 358.948 137.29 358.575 135.054 358.435 132.911 358.296 130.535 357.969 129.743 357.737 126.715 356.758 120.146 355.5 119.447 355.78 118.422 356.153 117.863 357.923 117.863 360.765 117.863 364.678 118.516 365.889 121.823 368.032 130.255 373.529 135.24 386.108 133.051 396.45 132.631 398.36 132.305 400.549 132.305 401.248 132.305 403.112 129.65 408.982 126.994 413.221 124.292 417.414 119.541 422.026 116.373 423.516L114.043 424.588 111.9 423.47C108.313 421.653 102.63 415.41 99.7414 410.239 96.2008 403.857 95.4088 400.829 95.1759 393.049 94.8498 382.847 96.853 375.952 101.465 371.34 102.676 370.129 105.052 368.405 106.729 367.427 108.733 366.308 109.944 365.33 110.13 364.678 110.596 362.861 110.456 354.149 109.897 352.938 109.618 352.333 108.733 351.494 107.894 351.121 102.63 348.606 99.1823 346.975 97.3655 346.137 96.2008 345.624 94.3373 344.599 93.1727 343.807 88.3277 340.639 87.1165 340.406 87.1165 342.596 87.1165 344.506 87.5357 345.065 90.1912 346.696 92.4273 348.047 92.9863 348.652 94.2908 351.494 96.6667 356.432 97.3655 361.137 96.5735 366.635 95.6418 372.877 93.9647 376.371 89.7719 380.517 85.3928 384.85 84.5542 385.129 81.8988 383.406 76.6345 380.005 72.8145 374.275 71.4635 367.753 70.8112 364.585 70.7647 363.467 71.2771 359.647 72.1157 353.171 73.6064 350.143 77.5197 347.068 79.2434 345.717 80.8273 344.273 81.0602 343.807 81.7124 342.596 81.6193 336.773 80.9205 335.608 80.5944 335.096 78.3582 332.859 75.8892 330.67 73.4201 328.434 70.159 325.219 68.6217 323.449 64.7084 319.023 60.0964 312.594 60.0964 311.569 60.0964 309.939 61.7735 310.731 64.755 313.806 72.0691 321.259 83.1566 329.365 92.4739 334.117 97.1325 336.447 108.686 341.198 111.574 341.897 112.599 342.177 114.696 342.689 116.233 343.108 133.051 347.581 154.387 347.068 173.301 341.804 179.171 340.173 186.439 337.192 192.169 334.071 194.731 332.673 197.526 331.276 198.365 330.903 200.694 329.924 200.787 328.993 198.644 327.129 196.827 325.545 195.756 324.986 193.566 324.427 192.681 324.194 191.936 324.614 189.933 326.524 186.625 329.645 181.92 331.741 172.416 334.304 169.994 334.909 167.851 335.561 167.618 335.701 165.941 336.726 148.424 339.102 142.414 339.149 138.781 339.149 124.758 337.611 119.96 336.633 116.559 335.981 113.531 335.142 108.779 333.512 107.242 332.999 105.145 332.347 104.12 332.067 101.512 331.322 90.0048 325.545 85.9984 322.983 76.5414 316.88 65.6867 307.656 65.6867 305.746 65.6867 304.582 66.8048 305.141 73.3269 309.566 86.1382 318.138 100.72 323.868 115.72 326.198 131.047 328.527 153.875 326.663 165.149 322.145 166.686 321.539 169.295 320.514 170.972 319.908 182.013 315.809 182.386 315.622 182.525 314.318 182.618 313.48 182.246 312.641 181.128 311.476 178.752 308.914 177.727 308.914 174.466 311.476 171.624 313.666 169.528 314.737 165.521 316.088 164.31 316.461 162.866 317.02 162.353 317.253 161.841 317.486 159.978 318.045 158.161 318.557 156.39 319.07 154.061 319.722 153.036 320.002 147.027 321.725 140.365 322.424 130.255 322.424 117.351 322.424 116.047 322.284 106.217 319.955 96.1542 317.626 83.7157 312.222 74.8643 306.352 70.1124 303.184 68.7149 301.926 69.3205 301.32 69.6466 300.994 71.6964 301.74 75.563 303.65 82.4578 307.004 86.837 308.681 94.5703 310.917 101.418 312.874 114.323 314.924 120.1 314.924 132.864 314.97 151.825 310.684 163.798 305.094 164.869 304.628 165.941 304.209 166.267 304.209 166.546 304.209 167.571 303.79 168.503 303.277 169.481 302.765 170.506 302.345 170.786 302.345 171.065 302.345 171.578 302.019 171.904 301.647 172.369 301.088 172.23 300.482 171.158 298.339 169.807 295.684 165.801 291.77 164.916 292.329 164.683 292.469 163.937 293.541 163.239 294.659 162.54 295.916 161.189 297.267 159.745 298.153 156.251 300.296 148.89 303.184 144.884 303.976 143.998 304.162 142.321 304.582 141.157 304.908 135.566 306.585 131.047 307.004 119.447 307.004 110.689 307.004 107.195 306.818 105.285 306.305 103.888 305.933 102.024 305.606 101.232 305.606 100.394 305.606 98.9028 305.327 97.9711 304.954 96.9928 304.582 94.5237 303.836 92.4739 303.277 88.2811 302.112 81.6193 299.41 77.7992 297.314 74.8177 295.73 74.3052 294.426 76.1221 293.261 77.4731 292.376 78.5912 292.562 85.4859 294.798 98.9494 299.224 102.164 299.783 115.767 299.737 126.529 299.737 127.833 299.643 133.237 298.479 140.039 297.035 149.169 294.053 156.018 290.978 158.673 289.814 161.189 288.835 161.608 288.835 163.798 288.835 164.124 285.621 162.4 281.847 161.282 279.425 160.537 278.586 159.512 278.586 159.232 278.586 157.555 279.751 155.785 281.149 151.732 284.41 145.862 287.205 138.129 289.674 124.991 293.82 119.773 294.565 107.382 294.286 97.8779 294.053 91.7285 293.447 88.747 292.376 87.7221 292.003 85.9984 291.584 84.9269 291.398 83.8088 291.211 82.9237 290.885 82.9237 290.652 82.9237 290.047 87.7687 290.186 92.008 290.932 94.0578 291.304 97.9245 291.631 100.627 291.631 107.661 291.631 121.357 289.72 126.482 287.997 127.274 287.717 129.79 286.879 132.072 286.133 136.451 284.643 142.135 282.267 144.884 280.683 145.769 280.17 148.284 278.959 150.474 277.981 157.695 274.766 157.648 274.766 158.114 272.856 158.44 271.552 158.347 270.527 157.788 268.663 157.369 267.266 156.996 265.635 156.996 265.03 156.996 263.586 155.785 261.815 154.76 261.815 154.341 261.815 152.71 263.073 151.173 264.564 147.353 268.337 136.405 274.999 129.277 277.888 119.075 282.08 109.245 284.037 96.5735 284.503 88.7936 284.782 88.0482 284.736 87.7687 283.99 87.396 283.059 89.1663 281.055 92.241 278.912 94.3839 277.422 95.0827 277.235 103.189 276.304 107.382 275.791 109.711 275.279 115.767 273.508 119.075 272.577 127.32 269.595 128.578 268.85 128.951 268.663 130.768 267.732 132.538 266.753 134.355 265.822 137.569 263.818 139.759 262.281 141.949 260.744 145.21 258.508 146.98 257.343 150.567 254.967 153.129 252.498 153.782 250.774 154.014 250.169 154.201 248.725 154.201 247.606 154.201 245.184 154.853 244.578 158.999 243.414 161.049 242.808 161.888 242.761 162.26 243.134 162.866 243.74 163.704 246.768 164.683 251.799 166.5 261.07 172.696 275.465 178.752 284.503 181.454 288.556 185.227 293.773 185.88 294.426 186.019 294.565 186.718 295.404 187.463 296.289 191.796 301.6 200.88 310.125 205.912 313.619 212.993 318.511 222.403 323.729 229.065 326.337 231.301 327.269 233.584 328.201 234.096 328.434 234.935 328.806 237.823 329.645 243.647 331.182 256.271 334.583 277.515 335.235 290.932 332.626 295.311 331.788 303.091 329.552 309.566 327.316 313.573 325.965 324.008 320.794 327.455 318.464 328.806 317.533 330.064 316.787 330.204 316.787 330.344 316.787 331.508 315.995 332.813 315.017 334.117 314.039 336.307 312.548 337.658 311.709 338.962 310.871 340.08 310.032 340.08 309.846 340.08 309.706 342.27 307.703 344.972 305.42 347.674 303.137 350.283 300.622 350.749 299.83 351.913 298.013 355.361 294.612 355.733 294.985 356.059 295.357 354.289 298.805 352.659 300.948 352.006 301.833 350.655 303.65 349.677 304.908 343.108 313.666 334.676 321.586 323.542 329.412 316.741 334.21 317.3 333.418 317.486 338.59 317.579 341.105 317.672 345.717 317.672 348.932 317.719 352.146 317.765 356.013 317.812 357.55 317.905 361.044 317.719 393.189 317.579 403.298 317.439 412.149 317.626 411.777 311.989 414.525 299.923 420.395 292.236 424.076 287.81 425.986 282.965 428.082 282.733 428.129 281.195 427.476 280.31 427.104 277.888 425.473 275.791 423.843 270.993 420.116 267.732 417.786 265.076 416.202 263.912 415.457 261.955 414.013 260.697 412.895 259.486 411.777 258.275 410.892 258.042 410.892 257.809 410.892 257.157 410.006 256.598 408.935L255.526 406.932 255.386 377.862C255.293 357.876 255.107 348.559 254.734 348.14 253.989 347.208 248.957 347.348 248.585 348.28 248.445 348.699 248.305 363.094 248.305 380.331L248.305 411.684 249.377 413.267C249.936 414.106 251.147 415.364 252.079 416.016 255.526 418.392 260.138 421.886 261.722 423.237 263.306 424.635 270.108 429.48 274.626 432.508 275.931 433.393 277.608 434.744 278.353 435.582L279.751 437.027 279.984 445.272C280.263 455.335 280.031 524.516 279.704 527.171 279.332 530.246 279.518 530.106 260.185 540.961 253.383 544.781 246.628 548.414 228.972 557.639 227.202 558.57 224.546 560.108 223.149 560.993 219.096 563.555 212.667 566.956 211.782 566.956 211.362 566.956 209.825 565.838 208.334 564.487ZM200.973 475.088C201.905 473.737 201.905 470.429 201.02 468.659 200.461 467.541 199.995 467.261 198.784 467.261 194.591 467.214 177.447 461.065 172.835 457.944 172.183 457.525 169.807 456.173 167.478 454.916 165.195 453.704 160.35 450.956 156.716 448.813 147.865 443.549 144.511 442.198 143.719 443.455 143.206 444.341 143.067 447.974 143.533 449.372 144.045 450.956 143.859 450.863 160.956 460.133 166.872 463.348 173.022 466.702 174.699 467.634 182.618 472.013 186.998 473.737 193.566 475.181 198.877 476.345 200.135 476.299 200.973 475.088ZM200.787 458.876C201.486 458.177 201.719 457.338 201.719 455.428 201.719 451.748 200.647 450.63 196.129 449.838 189.653 448.673 183.457 446.484 176.795 443.083 169.248 439.216 163.471 436.048 162.54 435.256 162.167 434.977 158.254 432.927 153.875 430.691 143.905 425.659 143.486 425.659 143.486 430.458L143.486 433.672 146.048 435.349C147.492 436.235 148.75 436.98 148.843 436.98 148.983 436.98 151.126 438.098 153.595 439.496 156.111 440.847 159.931 442.943 162.12 444.061 164.31 445.226 168.13 447.462 170.646 449.046 173.161 450.583 175.304 451.888 175.398 451.888 175.491 451.888 177.773 452.959 180.476 454.217 183.178 455.521 185.74 456.546 186.159 456.546 186.532 456.546 187.324 456.779 187.836 457.059 188.861 457.618 193.38 458.736 197.06 459.341 198.225 459.528 199.296 459.714 199.529 459.761 199.716 459.761 200.275 459.388 200.787 458.876ZM200.973 442.757C201.486 442.244 201.719 441.126 201.719 439.076 201.719 434.977 201.113 434.418 195.896 433.439 186.392 431.669 181.547 429.712 167.012 421.746 147.772 411.218 145.023 409.82 144.185 410.146 143.719 410.286 143.439 411.125 143.393 412.615 143.3 416.063 143.486 417.134 144.324 417.973 144.744 418.392 149.729 421.187 155.365 424.169 161.002 427.15 166.127 429.945 166.779 430.365 172.696 434.185 184.109 439.496 189.839 441.08 192.681 441.871 195.709 442.71 196.594 442.943 199.017 443.642 200.182 443.595 200.973 442.757ZM200.508 425.846C201.719 424.495 201.952 421.56 201.02 419.603 200.368 418.206 199.902 417.88 198.504 417.647 197.573 417.507 195.896 417.088 194.731 416.761 193.566 416.389 191.656 415.923 190.398 415.783 189.187 415.597 188.069 415.271 187.929 415.038 187.79 414.805 187.417 414.618 187.044 414.618 186.671 414.618 184.575 413.78 182.386 412.755 180.196 411.73 178.239 410.892 178.053 410.892 177.867 410.892 176.05 409.913 174 408.749 171.95 407.584 166.406 404.602 161.655 402.18 156.903 399.711 152.803 397.521 152.57 397.335 151.499 396.543 145.349 393.655 144.651 393.655 143.626 393.655 143.16 395.332 143.393 398.453 143.579 400.969 143.672 401.202 145.256 402.227 148.145 403.997 151.08 405.72 152.57 406.373 153.362 406.745 155.692 408.003 157.695 409.121 169.621 415.876 180.429 421.42 185.414 423.33 189.094 424.728 196.315 426.591 198.271 426.684 199.157 426.731 200.042 426.405 200.508 425.846ZM288.369 421.606C289.115 421.094 290.326 420.535 291.118 420.395 293.494 419.883 294.146 418.718 294.1 414.991 294.053 413.221 293.82 411.497 293.541 411.218 292.795 410.472 287.95 412.243 286.413 413.827 285.341 414.945 285.202 415.41 285.248 418.066 285.295 419.743 285.621 421.327 285.994 421.746 286.786 422.724 286.786 422.724 288.369 421.606ZM300.948 415.504C303.557 414.386 304.116 413.361 304.162 409.401 304.209 405.674 303.324 405.208 299.783 407.211 297.035 408.749 296.662 409.401 296.569 413.128 296.475 416.715 297.174 417.134 300.948 415.504ZM310.871 410.752C311.989 410.146 313.386 409.541 313.899 409.354 315.39 408.982 315.995 406.978 315.529 403.671 315.063 400.177 314.318 399.944 310.172 402.18L307.237 403.764 307.144 407.118C307.097 409.541 307.284 410.612 307.796 411.125 308.635 412.01 308.448 412.01 310.871 410.752ZM200.508 409.727C201.626 408.609 201.952 404.975 201.113 403.205 200.368 401.621 200.182 401.574 192.867 399.944 185.88 398.406 180.289 395.937 166.08 388.297 161.981 386.061 156.763 383.126 154.434 381.775 148.61 378.328 145.07 376.697 144.231 377.023 143.16 377.443 143.16 384.431 144.231 385.316 144.604 385.642 147.912 387.412 151.545 389.229 158.953 392.956 167.431 397.521 170.273 399.338 177.121 403.624 184.389 406.652 193.566 409.028 199.669 410.612 199.576 410.612 200.508 409.727ZM289.068 407.351C292.562 405.674 293.96 403.95 293.96 401.295 293.96 398.453 293.308 397.382 291.631 397.382 289.627 397.382 284.829 399.944 284.456 401.248 284.037 402.879 284.13 406.699 284.643 407.677 285.295 408.842 285.994 408.795 289.068 407.351ZM301.134 401.062C302.532 400.549 303.79 399.757 303.929 399.338 304.395 397.801 304.069 392.723 303.463 392.257 302.765 391.651 297.454 394.214 297.035 395.332 296.662 396.263 296.662 400.363 297.035 401.295 297.407 402.273 298.059 402.227 301.134 401.062ZM311.709 396.217C315.529 393.748 315.39 393.934 315.39 390.161L315.39 386.667 314.085 386.667C313.34 386.667 312.361 386.993 311.849 387.365 311.383 387.738 310.591 388.064 310.172 388.064 308.541 388.064 307.61 389.648 307.33 392.956 307.004 396.17 307.47 397.847 308.588 397.847 308.961 397.847 310.358 397.102 311.709 396.217ZM288.276 393.655C288.975 393.142 290.466 392.257 291.631 391.698L293.727 390.626 293.867 386.993C293.96 384.011 293.867 383.359 293.261 383.08 291.77 382.52 285.435 385.083 284.922 386.434 284.549 387.459 284.549 393.888 284.969 394.26 285.528 394.866 287.018 394.586 288.276 393.655ZM201.16 390.114C201.346 385.549 200.927 385.083 194.871 383.918 186.299 382.241 179.497 379.306 166.313 371.666 162.074 369.197 155.459 365.61 151.545 363.653 143.067 359.414 142.88 359.46 143.3 364.911 143.393 366.728 143.672 368.405 143.905 368.638 144.092 368.824 147.073 370.408 150.52 372.132 161.189 377.582 167.338 380.89 170.692 382.893 179.311 388.204 194.079 393.655 199.157 393.468L201.02 393.422 201.16 390.114ZM300.482 387.365C301.74 386.76 303.091 385.735 303.463 385.176 304.442 383.778 304.442 379.539 303.463 378.561 302.532 377.582 302.625 377.582 299.69 379.259 296.802 380.937 296.289 381.868 296.615 385.083 296.988 389.089 297.035 389.136 300.482 387.365ZM310.778 382.893C314.225 381.729 316.228 378.514 315.622 374.974 315.25 372.737 314.365 372.271 312.408 373.296 311.616 373.669 310.498 374.135 309.986 374.321 308.122 374.834 307.33 376.278 307.144 379.353 307.051 380.937 307.097 382.52 307.237 382.847 307.516 383.545 308.728 383.545 310.778 382.893ZM287.251 380.61C287.531 380.331 288.835 379.586 290.233 378.84 293.96 376.93 294.519 375.952 294.1 371.992 293.634 367.939 293.261 367.846 288.369 370.268L284.876 371.992 284.503 375.02C283.99 379.166 284.363 381.076 285.714 381.076 286.32 381.076 287.018 380.843 287.251 380.61ZM200.275 376.93C201.16 376.371 201.719 372.411 201.16 370.501 200.694 368.778 199.949 368.358 196.361 367.799 193.706 367.427 190.492 366.402 185.414 364.352 183.504 363.56 181.733 362.908 181.547 362.908 181.361 362.908 178.938 361.79 176.19 360.485 171.391 358.109 171.065 358.063 167.711 358.156 163.052 358.296 161.002 358.761 160.816 359.833 160.63 360.765 161.515 361.557 164.31 362.908 165.428 363.42 168.549 365.19 171.298 366.821 177.028 370.175 183.969 373.576 186.066 373.949 186.858 374.088 188.022 374.461 188.675 374.787 189.327 375.113 190.585 375.486 191.47 375.672 192.355 375.812 194.358 376.278 195.896 376.604 199.343 377.443 199.483 377.443 200.275 376.93ZM301.32 373.296C304.116 371.899 304.302 371.386 304.116 367.1 303.976 364.398 303.883 364.072 302.951 363.933 301.6 363.746 298.479 365.377 297.267 366.914 296.522 367.846 296.289 368.824 296.289 370.781 296.289 374.88 297.267 375.346 301.32 373.296ZM311.29 368.405C314.411 367.287 315.25 366.308 315.669 363.327 316.228 359.088 314.644 357.83 310.824 359.414 307.656 360.765 307.097 361.65 307.097 365.377 307.097 367.24 307.19 368.871 307.33 369.104 307.656 369.616 308.308 369.523 311.29 368.405ZM291.631 364.259C294.006 362.954 294.565 361.463 294.1 357.41 293.82 354.708 293.168 354.056 291.491 354.895 290.932 355.174 289.627 355.733 288.602 356.153 285.295 357.457 284.643 358.435 284.643 362.022 284.643 364.724 284.782 365.284 285.667 365.889 286.739 366.681 287.438 366.495 291.631 364.259ZM200.787 360.159C201.02 359.647 201.253 357.876 201.253 356.246 201.253 352.239 201.206 352.193 194.032 350.982 193.1 350.795 191.563 351.214 189.28 352.146 187.417 352.938 185.507 353.59 185.041 353.59 183.737 353.59 182.805 354.895 183.41 355.827 183.876 356.618 187.231 358.063 190.072 358.715 192.076 359.134 195.896 360.066 197.759 360.578 199.949 361.137 200.275 361.091 200.787 360.159ZM300.808 359.553C304.162 357.83 304.302 357.457 304.116 353.125 303.976 350.376 303.883 350.096 302.904 349.957 301.507 349.724 297.92 351.494 297.081 352.845 296.056 354.382 295.87 360.019 296.755 360.578 297.687 361.184 297.5 361.231 300.808 359.553ZM312.175 354.056C313.899 353.171 315.11 352.193 315.39 351.494 315.902 350.143 315.576 345.205 314.924 344.553 314.644 344.273 313.526 344.553 311.663 345.438 307.423 347.488 307.004 348 307.004 351.401 307.004 354.289 307.516 355.454 308.728 355.454 309.1 355.454 310.638 354.802 312.175 354.056ZM289.814 350.935C293.447 349.072 294.659 347.674 294.239 345.95 293.867 344.459 292.935 344.18 290.326 344.786 285.248 345.997 284.922 346.23 284.596 348.466 284.27 350.888 284.782 352.659 285.761 352.659 286.18 352.659 287.95 351.867 289.814 350.935ZM299.83 346.323C301.88 345.484 304.209 343.481 304.209 342.549 304.209 341.198 302.485 340.965 299.923 341.99 296.755 343.248 296.289 343.621 296.289 345.205 296.289 347.301 296.941 347.534 299.83 346.323ZM312.129 340.22C314.877 338.962 316.088 337.518 315.576 336.12 315.157 335.142 314.644 335.235 310.964 337.192 308.308 338.636 307.656 339.195 307.563 340.22 307.377 341.897 308.541 341.897 312.129 340.22Z" fill="#0D0D0D" transform="matrix(1.00172 0 0 -1 430 618)"/><path d="M259.719 327.083C252.824 326.431 246.861 325.219 238.522 322.657 218.956 316.647 199.25 302.532 186.252 285.295 181.081 278.4 174.466 266.474 172.649 260.79 172.276 259.672 171.531 257.622 170.972 256.225 170.413 254.827 169.761 252.871 169.528 251.846 169.295 250.867 168.876 249.656 168.596 249.144 168.316 248.678 167.897 247.001 167.664 245.417 167.152 242.249 167.757 240.712 169.667 240.246 177.121 238.522 177.587 238.476 178.659 239.174 179.264 239.594 180.056 240.851 180.429 242.109 183.69 252.358 186.485 258.508 192.076 267.452 199.529 279.425 211.176 291.118 223.847 299.41 228.273 302.345 237.963 307.097 242.482 308.635 244.532 309.333 246.535 310.079 246.954 310.312 247.373 310.498 250.635 311.43 254.222 312.361 272.39 316.974 290.093 316.974 308.169 312.361 319.07 309.566 335.934 301.74 342.177 296.522 344.925 294.239 349.537 291.165 349.817 291.398 350.329 291.91 342.736 299.69 337.937 303.603 336.959 304.395 335.515 305.56 334.723 306.212 331.322 309.007 322.797 314.271 317.579 316.834 310.032 320.514 294.519 325.639 290.839 325.639 290.28 325.639 288.649 325.918 287.298 326.291 284.316 327.083 265.542 327.595 259.719 327.083Z" fill="#0D0D0D" transform="matrix(1.00172 0 0 -1 430 618)"/><path d="M267.406 310.218C264.471 309.753 260.884 309.054 259.486 308.681 254.035 307.19 252.079 306.585 251.147 306.119 250.635 305.839 249.796 305.606 249.284 305.606 248.771 305.606 247.653 305.28 246.814 304.861 229.624 296.708 223.801 292.935 213.785 283.664 205.399 275.838 194.498 260.185 190.678 250.402 190.398 249.61 189.746 247.979 189.234 246.675 187.51 242.296 186.625 238.476 187.091 237.684 187.883 236.472 195.569 235.168 196.827 236.1 197.712 236.705 198.97 239.035 200.088 242.016 203.536 251.1 209.312 260.231 218.35 270.667 222.31 275.279 224.313 277.096 229.904 281.288 231.674 282.639 234.329 284.643 235.727 285.761 241.224 290.047 259.16 298.199 266.707 299.83 281.428 302.951 281.102 302.904 293.913 302.671 305.141 302.485 306.212 302.392 312.594 300.994 320.188 299.364 322.704 298.618 327.036 296.662 328.667 295.916 331.276 294.798 332.859 294.193 334.397 293.541 337.937 291.91 340.686 290.466 343.481 289.068 345.81 287.904 345.95 287.904 348.093 287.904 335.794 296.662 329.226 299.83 327.502 300.668 325.778 301.553 325.452 301.833 324.8 302.392 321.027 303.976 316.321 305.7 313.899 306.585 312.594 306.957 306.212 308.635 296.475 311.197 278.307 311.942 267.406 310.218Z" fill="#0D0D0D" transform="matrix(1.00172 0 0 -1 430 618)"/><path d="M283.664 295.59C283.525 295.497 281.475 295.171 279.052 294.892 272.623 294.193 263.772 291.863 258.321 289.534 253.569 287.484 252.358 286.972 252.032 286.972 251.473 286.972 244.765 282.919 239.035 279.099 229.671 272.903 219.561 262.328 213.226 252.125 209.965 246.861 205.446 237.497 205.446 235.913 205.446 235.214 208.194 234.329 210.384 234.329 212.061 234.329 214.111 235.773 214.577 237.264 214.903 238.382 218.769 244.998 221.006 248.305 223.987 252.684 231.208 260.884 234.982 264.191 248.398 275.978 258.694 281.475 275.046 285.621 284.643 288.043 296.895 289.255 303.37 288.416 305.513 288.137 309.147 287.671 311.43 287.391 313.759 287.158 316.787 286.599 318.185 286.227 319.582 285.807 321.586 285.295 322.61 285.062 326.943 283.99 336.447 280.496 342.363 277.794 343.761 277.142 343.994 277.142 344.692 277.888 345.391 278.586 345.298 278.819 343.108 280.729 340.593 282.965 340.453 283.059 332.533 287.065 320.98 292.935 307.61 295.823 291.817 295.823 287.438 295.823 283.757 295.73 283.664 295.59Z" fill="#0D0D0D" transform="matrix(1.00172 0 0 -1 430 618)"/><path d="M299.783 282.919C290.512 282.453 281.894 281.055 279.099 279.518 278.586 279.285 277.655 279.052 277.049 279.052 276.443 279.052 274.487 278.493 272.716 277.841 270.946 277.189 268.896 276.443 268.104 276.164 264.843 274.906 257.483 270.993 252.964 268.104 244.066 262.374 237.404 256.132 229.997 246.675 225.245 240.572 222.962 236.798 223.242 235.447 223.382 234.702 223.894 234.562 227.155 234.422 230.649 234.283 231.068 234.376 232.373 235.494 233.165 236.146 234.749 238.103 235.867 239.827 242.342 249.656 252.172 259.113 262.98 265.961 266.567 268.244 274.859 272.484 277.888 273.555 287.857 277.189 294.333 278.726 303.743 279.611 310.125 280.217 309.753 280.217 318.324 279.704 322.517 279.471 324.241 279.565 324.241 279.891 324.241 280.869 319.349 281.894 312.594 282.313 308.867 282.546 305.001 282.826 303.976 282.872 302.951 282.965 301.088 282.965 299.783 282.919Z" fill="#0D0D0D" transform="matrix(1.00172 0 0 -1 430 618)"/><path d="M304.908 272.064C282.965 268.524 264.797 258.88 249.843 242.948 247.513 240.479 245.51 238.056 245.37 237.59 244.998 236.053 246.022 235.68 249.051 236.239 250.541 236.519 252.824 236.938 254.035 237.124 256.458 237.59 258.368 238.802 261.815 242.016 266.241 246.209 274.44 251.892 280.776 255.153 286.925 258.321 296.569 262.281 298.246 262.281 298.712 262.281 299.737 262.561 300.575 262.933 303.184 264.051 316.088 265.868 323.729 266.194 326.198 266.288 328.62 266.567 329.133 266.753 330.39 267.219 333.698 269.362 334.117 269.968 335.235 271.505 330.763 272.251 317.253 272.67 311.663 272.856 308.867 272.716 304.908 272.064Z" fill="#0D0D0D" transform="matrix(1.00172 0 0 -1 430 618)"/><path d="M107.149 269.269C106.543 268.896 106.59 268.71 107.382 267.918 108.267 267.033 115.814 262.281 116.28 262.281 116.419 262.281 117.398 261.676 118.469 260.93 120.472 259.579 133.051 253.383 135.1 252.731 135.753 252.545 137.616 251.799 139.293 251.1 145.629 248.398 146.095 248.957 141.157 253.337 134.961 258.927 121.171 266.101 112.04 268.57 110.503 268.99 108.919 269.409 108.546 269.502 108.173 269.642 107.521 269.502 107.149 269.269Z" fill="#0D0D0D" transform="matrix(1.00172 0 0 -1 430 618)"/><path d="M311.197 259.439C297.314 256.551 284.037 251.24 275.931 245.184 270.341 241.084 271.645 240.758 281.242 243.88 284.782 244.998 288.835 246.395 290.233 246.908 291.631 247.467 293.401 248.072 294.1 248.305 294.845 248.538 295.684 248.911 295.963 249.144 296.289 249.377 297.035 249.749 297.687 249.936 300.435 250.774 312.268 256.504 314.271 257.949 315.11 258.554 314.831 259.998 313.899 259.905 313.573 259.859 312.361 259.672 311.197 259.439Z" fill="#0D0D0D" transform="matrix(1.00172 0 0 -1 430 618)"/><path d="M143.02 197.06C141.436 196.688 138.501 195.383 135.939 193.986 133.843 192.821 129.883 188.116 128.439 185.041 126.761 181.5 126.202 175.491 127.181 171.391 128.159 167.198 131.047 162.959 135.24 159.558 143.672 152.757 157.602 154.154 164.822 162.493 168.969 167.292 169.295 168.316 169.341 176.096 169.341 182.665 169.295 182.945 167.99 185.414 164.683 191.703 159.698 195.616 153.316 197.014 150.567 197.619 145.443 197.619 143.02 197.06ZM153.083 188.255C155.971 186.951 158.627 184.296 159.791 181.594 161.189 178.333 160.909 173.068 159.232 169.994 157.881 167.571 154.9 165.149 152.431 164.45 150.101 163.798 145.489 163.891 143.439 164.636 138.688 166.313 135.613 171.112 135.566 176.749 135.566 179.311 137.569 184.063 139.48 185.833 142.834 189.001 149.03 190.119 153.083 188.255Z" fill="#0D0D0D" transform="matrix(1.00172 0 0 -1 430 618)"/><path d="M34.3807 196.688C31.9582 196.594 31.1197 196.361 30.8402 195.756 30.6072 195.337 30.4675 186.532 30.4675 176.283 30.5141 161.282 30.6538 157.415 31.1663 156.81 32.098 155.692 38.3871 155.738 38.9462 156.903 39.1791 157.322 39.4586 162.307 39.5984 167.944 39.8779 180.662 39.8779 180.662 45.4683 172.835 47.5647 169.9 49.894 166.546 50.5928 165.382 51.804 163.471 53.4811 161.096 56.1831 157.602 57.3012 156.111 57.441 156.064 60.9815 156.064 63.7767 156.064 64.8016 156.251 65.2675 156.81 65.7333 157.415 65.9197 161.468 65.9663 176.283 66.0129 187.044 65.8731 195.29 65.6402 195.802 65.2675 196.455 64.5221 196.594 61.4474 196.594 58.8851 196.594 57.6739 196.408 57.5341 196.035 57.441 195.709 57.2546 190.725 57.1149 184.948 57.0217 179.171 56.8819 174.419 56.8819 174.373 56.8353 174.28 56.4161 174.233 55.9502 174.233 54.9253 174.233 53.3414 176.329 46.1671 187.277 43.4185 191.516 40.7631 195.29 40.2506 195.709 39.0859 196.688 38.1542 196.874 34.3807 196.688Z" fill="#0D0D0D" transform="matrix(1.00172 0 0 -1 430 618)"/><path d="M78.0321 196.734C76.7743 196.594 75.4699 196.315 75.1438 196.035 74.3518 195.383 74.2586 158.394 75.004 156.949 75.4233 156.204 76.0289 156.064 78.6843 156.064 81.1068 156.064 82.0386 156.251 82.5044 156.856 83.0169 157.415 83.2032 160.024 83.3896 167.198 83.6225 176.143 83.6691 176.795 84.5076 176.795 85.1598 176.795 86.0916 175.118 88.6072 169.108 94.1044 156.297 93.9181 156.623 95.7349 156.111 96.7598 155.831 97.9711 155.831 98.9028 156.111 100.347 156.484 100.627 156.903 102.49 161.329 103.561 163.937 104.959 167.152 105.518 168.41 106.077 169.714 107.149 172.043 107.847 173.674 109.152 176.562 110.456 177.447 111.062 175.817 111.202 175.398 111.341 171.158 111.341 166.36 111.341 160.117 111.528 157.415 111.947 156.903 112.32 156.39 113.578 156.018 115.627 155.831 120.379 155.319 120.1 154.108 120.006 176.702 119.913 190.957 119.727 195.849 119.308 196.268 118.516 197.06 109.571 196.92 108.779 196.035 108.453 195.709 107.614 194.079 106.916 192.402 106.217 190.725 105.471 189.001 105.192 188.488 104.959 188.022 104.493 186.765 104.167 185.693 103.841 184.668 102.304 181.081 100.813 177.82 97.412 170.413 96.9462 170.273 94.6635 176.096 91.6819 183.597 91.2161 184.715 90.3309 186.811 89.8185 187.976 88.7004 190.585 87.9084 192.635 86.045 197.2 85.7655 197.293 78.0321 196.734Z" fill="#0D0D0D" transform="matrix(1.00172 0 0 -1 430 618)"/><path d="M178.193 196.688C176.05 196.268 176.096 196.548 176.096 176.609 176.096 160.956 176.19 157.462 176.749 156.716 177.354 155.878 178.006 155.831 185.274 155.924 196.688 156.018 198.458 156.297 200.834 158.161 206.424 162.54 206.797 169.947 201.719 175.444 200.694 176.562 199.855 177.634 199.855 177.867 199.855 178.053 200.321 178.892 200.927 179.73 201.533 180.522 202.418 182.339 202.884 183.783 203.769 186.299 203.769 186.392 202.884 188.954 201.812 192.122 200.88 193.38 198.271 195.15L196.268 196.548 187.696 196.688C182.991 196.781 178.705 196.781 178.193 196.688ZM190.957 188.628C193.52 187.743 194.591 184.342 192.961 182.246 192.262 181.361 191.516 181.081 189.234 180.895 185.367 180.522 184.948 180.941 184.948 184.901 184.948 186.718 185.181 188.255 185.507 188.582 186.206 189.28 189.001 189.327 190.957 188.628ZM194.079 172.137C195.569 171.158 196.222 169.435 195.849 167.431 195.383 164.916 194.218 164.217 189.886 164.077 185.041 163.844 184.855 164.031 185.041 168.969L185.181 172.602 187.277 172.882C190.212 173.348 192.681 173.068 194.079 172.137Z" fill="#0D0D0D" transform="matrix(1.00172 0 0 -1 430 618)"/><path d="M211.549 196.175C210.524 195.15 210.524 195.104 210.663 176.329 210.803 160.304 210.896 157.415 211.502 156.856 212.341 156.018 217.512 155.459 218.49 156.064 219.096 156.437 219.189 159.279 219.329 175.957 219.375 186.671 219.235 195.709 219.049 196.035 218.816 196.361 217.279 196.734 215.602 196.92 212.9 197.153 212.434 197.06 211.549 196.175Z" fill="#0D0D0D" transform="matrix(1.00172 0 0 -1 430 618)"/><path d="M228.832 196.315C228.18 195.849 228.04 193.659 227.947 178.845 227.807 160.676 227.947 157.369 229.018 156.297 229.997 155.319 248.212 155.505 249.377 156.484 249.982 156.949 250.169 157.881 250.169 159.978 250.169 161.515 249.982 163.052 249.796 163.378 249.61 163.704 247.28 164.031 243.693 164.17 240.525 164.357 237.777 164.59 237.544 164.729 237.311 164.869 237.124 171.81 237.124 180.196 237.124 189.001 236.938 195.709 236.659 196.129 236.1 197.014 229.95 197.153 228.832 196.315Z" fill="#0D0D0D" transform="matrix(1.00172 0 0 -1 430 618)"/><path d="M256.691 196.688 255.526 196.315 255.386 177.028C255.247 154.574 254.92 156.064 259.952 156.064 262.235 156.064 263.259 156.251 263.725 156.81 264.517 157.741 264.61 195.383 263.818 196.175 263.213 196.781 258.275 197.153 256.691 196.688Z" fill="#0D0D0D" transform="matrix(1.00172 0 0 -1 430 618)"/><path d="M285.295 196.641C284.596 196.315 283.851 194.871 282.639 191.377 280.776 185.926 276.024 173.348 272.856 165.382 271.692 162.447 270.62 159.232 270.434 158.3 270.108 156.716 270.201 156.484 271.365 156.064 272.484 155.645 274.58 155.738 277.561 156.344 278.353 156.484 279.006 157.369 279.984 159.558 280.729 161.189 281.708 162.726 282.173 162.959 282.686 163.239 286.133 163.332 290.699 163.192 297.873 162.959 298.432 162.912 299.178 161.934 299.643 161.422 300.016 160.397 300.016 159.745 300.016 156.949 302.625 155.598 307.33 155.971 309.1 156.111 309.846 156.39 310.032 156.949 310.125 157.369 309.613 159.372 308.821 161.422 308.029 163.471 306.911 166.406 306.352 167.944 305.746 169.481 304.349 173.161 303.277 176.096 302.206 179.031 300.855 182.712 300.249 184.249 297.221 192.402 295.684 196.082 295.171 196.268 293.913 196.781 286.227 197.014 285.295 196.641ZM291.91 182.618C294.239 175.537 294.985 172.835 294.752 172.183 294.519 171.578 293.68 171.438 290.326 171.438 284.876 171.438 284.549 171.764 285.994 175.77 286.599 177.354 287.251 179.497 287.531 180.522 288.509 184.715 290.839 185.833 291.91 182.618Z" fill="#0D0D0D" transform="matrix(1.00172 0 0 -1 430 618)"/><path d="M318.418 196.734C317.672 196.594 316.741 196.315 316.461 196.035 315.995 195.663 315.855 191.144 315.855 176.283 315.855 154.154 315.39 156.064 320.654 156.064 322.704 156.064 323.822 156.297 324.194 156.716 324.567 157.136 324.753 159.279 324.8 162.447 324.8 169.807 325.639 170.599 328.294 165.894 331.276 160.583 334.21 156.484 335.142 156.297 335.655 156.204 337.704 155.971 339.661 155.831 342.549 155.598 343.341 155.645 343.947 156.297 344.879 157.182 344.599 157.928 342.41 160.956 339.475 165.009 337.285 168.969 337.285 170.18 337.285 171.018 337.751 171.717 338.822 172.463 344.553 176.516 346.323 182.805 343.435 188.908 341.944 192.076 339.521 194.405 336.4 195.802 334.583 196.594 333.092 196.781 327.036 196.874 323.076 196.92 319.21 196.874 318.418 196.734ZM331.881 188.022C335.515 186.532 336.586 182.525 334.071 179.73 332.859 178.333 332.44 178.193 329.365 178.053 327.269 177.913 325.825 178.053 325.499 178.379 324.847 179.031 324.614 186.019 325.173 187.557 325.545 188.535 325.918 188.675 327.968 188.675 329.272 188.675 330.996 188.395 331.881 188.022Z" fill="#0D0D0D" transform="matrix(1.00172 0 0 -1 430 618)"/><path d="M354.755 196.688C353.218 196.594 351.82 196.268 351.634 195.989 351.447 195.663 351.261 186.904 351.261 176.516 351.261 161.096 351.401 157.462 351.913 156.763 352.426 156.018 353.078 155.878 355.5 155.971 360.392 156.157 360.066 154.62 359.786 176.469 359.693 186.904 359.507 195.663 359.414 195.942 359.181 196.641 358.016 196.874 354.755 196.688Z" fill="#0D0D0D" transform="matrix(1.00172 0 0 -1 430 618)"/><path d="M382.241 196.641C379.818 196.268 380.051 196.734 373.809 179.823 372.877 177.401 371.759 174.14 371.2 172.602 370.688 171.065 369.896 168.969 369.43 167.944 367.566 163.937 366.029 159.465 365.982 157.928L365.936 156.297 369.616 156.157C373.949 156.018 374.601 156.39 375.765 159.884 376.977 163.565 377.489 163.704 386.341 163.239L393.888 162.819 395.518 159.558C397.521 155.598 398.593 155.179 404.276 156.344 405.814 156.67 405.627 157.648 402.692 165.055 401.248 168.689 399.478 173.441 398.733 175.631 396.916 181.174 394.68 187.231 393.888 189.001 393.515 189.793 393.189 190.631 393.189 190.911 393.189 191.703 391.372 195.523 390.766 195.989 389.974 196.641 384.617 197.014 382.241 196.641ZM388.157 179.078C390.766 171.438 390.766 171.438 384.99 171.438 381.775 171.438 381.496 171.531 381.03 172.556 380.61 173.441 380.704 174.093 381.496 175.863 382.055 177.075 382.474 178.426 382.474 178.845 382.474 179.264 382.8 180.01 383.173 180.476 383.545 180.988 383.871 181.78 383.871 182.199 383.871 183.178 385.176 184.575 385.921 184.342 386.201 184.249 387.226 181.92 388.157 179.078Z" fill="#0D0D0D" transform="matrix(1.00172 0 0 -1 430 618)"/><path d="M14.0691 195.802C13.5566 194.451 13.6498 157.136 14.2088 156.577 14.9542 155.831 20.8241 155.738 21.5229 156.437 22.3149 157.229 23.1534 187.37 22.5478 192.774L22.1285 196.361 18.2618 196.501C14.9542 196.594 14.3952 196.501 14.0691 195.802Z" fill="#0D0D0D" transform="matrix(1.00172 0 0 -1 430 618)"/><path d="M107.661 139.992 105.751 137.896 105.751 132.212C105.751 129.044 105.891 126.016 106.031 125.457 106.45 123.92 109.478 122.056 112.133 121.777 114.835 121.451 116.652 122.196 118.516 124.432 121.124 127.507 118.562 129.51 115.627 126.715 112.506 123.733 109.804 125.41 109.198 130.721 108.779 134.867 109.524 137.29 111.481 138.129 113.065 138.781 113.904 138.641 115.301 137.43 117.071 135.892 118.329 135.427 119.075 136.079 120.146 136.964 119.867 137.756 117.724 139.992 115.72 142.042 115.674 142.088 112.646 142.088 109.618 142.088 109.571 142.042 107.661 139.992Z" fill="#0D0D0D" transform="matrix(1.00172 0 0 -1 430 618)"/><path d="M125.83 140.598C123.407 138.222 122.895 136.498 123.081 130.768L123.221 125.737 125.131 123.92C128.578 120.705 134.029 121.031 136.731 124.572 137.802 125.969 137.896 126.529 137.989 131.42 138.082 137.523 137.569 138.967 134.774 140.924 133.377 141.855 132.445 142.088 130.209 142.088 127.647 142.088 127.227 141.949 125.83 140.598ZM131.979 138.315C132.631 138.035 133.377 137.29 133.656 136.638 134.308 135.287 134.355 128.345 133.703 127.227 133.144 126.109 130.721 125.131 129.37 125.504 127.833 125.876 127.274 127.32 126.948 131.979 126.668 136.032 126.668 136.079 128.066 137.43 129.557 138.967 130.255 139.107 131.979 138.315Z" fill="#0D0D0D" transform="matrix(1.00172 0 0 -1 430 618)"/><path d="M142.694 141.762C142.228 141.622 142.088 139.2 142.088 132.072 142.088 123.314 142.135 122.522 142.927 122.103 143.579 121.777 144.092 121.823 144.79 122.336 145.722 122.988 145.815 123.454 145.815 128.019 145.815 132.352 146.281 134.914 146.887 134.169 146.98 134.029 148.145 131.653 149.496 128.811 152.431 122.755 153.362 121.59 155.365 121.59 157.695 121.59 157.881 122.662 157.695 132.305 157.555 136.917 157.369 140.924 157.229 141.157 156.996 141.576 154.76 141.855 154.62 141.529 154.574 141.436 154.434 138.874 154.247 135.799 154.014 131.28 153.828 130.209 153.269 130.209 152.896 130.209 152.198 130.954 151.778 131.839 151.359 132.725 150.288 134.914 149.449 136.684 147.492 140.737 146.235 142.088 144.557 142.042 143.859 142.042 142.973 141.902 142.694 141.762Z" fill="#0D0D0D" transform="matrix(1.00172 0 0 -1 430 618)"/><path d="M165.055 141.157C162.214 139.433 161.375 136.125 163.052 133.377 164.124 131.56 165.801 130.628 168.829 130.209 172.276 129.696 173.767 127.74 172.043 126.016 171.391 125.364 170.739 125.271 168.223 125.504 162.586 126.063 162.493 126.063 161.934 125.224 161.142 123.92 162.866 122.569 166.22 121.963 171.717 120.938 175.817 122.802 176.795 126.808 177.541 129.696 174.652 132.631 170.459 133.423 167.012 134.029 164.962 137.15 167.198 138.361 168.363 138.967 171.484 138.967 173.115 138.361 175.584 137.43 176.609 140.271 174.233 141.483 172.369 142.414 166.826 142.228 165.055 141.157Z" fill="#0D0D0D" transform="matrix(1.00172 0 0 -1 430 618)"/><path d="M177.68 141.11C176.842 140.178 176.842 140.132 177.727 139.48 178.193 139.107 179.357 138.827 180.336 138.827 181.267 138.827 182.292 138.548 182.572 138.175 182.945 137.756 183.178 134.867 183.317 130.255 183.41 126.249 183.643 122.755 183.783 122.522 184.156 121.916 186.206 121.916 186.578 122.522 186.765 122.802 186.904 126.249 186.904 130.162 186.904 134.076 187.091 137.569 187.277 137.942 187.51 138.268 188.675 138.641 189.933 138.781 191.563 139.014 192.215 139.293 192.308 139.899 192.681 141.809 191.703 142.088 184.948 142.088 179.078 142.088 178.519 141.995 177.68 141.11Z" fill="#0D0D0D" transform="matrix(1.00172 0 0 -1 430 618)"/><path d="M195.663 141.203C195.383 140.644 195.197 136.731 195.197 131.7 195.197 122.336 195.383 121.637 197.759 122.243 198.831 122.522 198.924 122.755 198.924 125.271 198.924 128.765 199.203 129.51 200.554 129.51 201.393 129.51 202.045 128.811 203.536 126.016 205.492 122.522 206.471 121.59 208.241 121.59 209.871 121.59 209.871 122.941 208.334 125.783 206.564 128.998 206.471 130.255 207.961 131.42 210.663 133.563 210.337 139.014 207.309 141.063 205.958 141.949 205.166 142.088 200.973 142.088 196.688 142.088 196.129 141.995 195.663 141.203ZM205.12 137.337C206.098 136.172 206.098 135.939 205.027 134.588 204.002 133.33 200.973 133.051 199.669 134.122 198.784 134.867 198.691 137.104 199.529 137.802 201.02 139.014 203.815 138.781 205.12 137.337Z" fill="#0D0D0D" transform="matrix(1.00172 0 0 -1 430 618)"/><path d="M213.924 141.529C213.552 141.157 213.365 138.688 213.365 133.423 213.365 125.876 213.365 125.83 214.623 124.339 218.117 120.193 225.152 120.752 227.435 125.317 228.133 126.668 228.273 128.206 228.273 134.262 228.273 140.97 228.18 141.576 227.388 141.855 226.177 142.228 225.059 141.669 224.779 140.504 224.686 139.992 224.5 136.778 224.453 133.377 224.313 126.482 224.08 125.969 221.192 125.457 219.794 125.271 219.282 125.41 218.304 126.389 217.139 127.553 217.092 127.786 217.092 133.656 217.092 136.964 216.906 140.225 216.627 140.877 216.161 142.182 214.856 142.461 213.924 141.529Z" fill="#0D0D0D" transform="matrix(1.00172 0 0 -1 430 618)"/><path d="M234.888 140.691C232.093 138.688 231.814 137.896 231.814 131.793 231.767 125.737 232.093 124.758 234.655 122.988 236.659 121.637 240.246 121.404 242.482 122.522 244.019 123.314 246.069 126.063 245.883 127.134 245.603 128.485 243.693 128.252 241.923 126.715 240.572 125.504 239.966 125.271 238.802 125.504 236.239 126.016 235.727 127.181 235.727 132.305 235.727 136.731 235.773 136.917 236.938 137.849 238.708 139.247 239.594 139.06 242.016 136.964 243.181 135.939 244.392 135.1 244.625 135.1 244.858 135.1 245.277 135.613 245.557 136.218 245.976 137.104 245.883 137.616 244.998 138.967 243.507 141.203 241.83 142.088 239.081 142.088 237.264 142.088 236.379 141.809 234.888 140.691Z" fill="#0D0D0D" transform="matrix(1.00172 0 0 -1 430 618)"/><path d="M248.072 141.343C246.768 139.992 247.56 139.247 250.867 138.501L252.731 138.129 252.964 130.582C253.104 125.876 253.383 122.848 253.709 122.522 254.035 122.196 254.734 122.056 255.34 122.149 256.458 122.289 256.458 122.336 256.691 130.162L256.924 138.035 258.088 138.408C258.741 138.594 259.812 138.874 260.557 139.014 261.489 139.247 261.815 139.573 261.815 140.411 261.815 141.017 261.489 141.669 261.07 141.809 260.651 141.949 257.762 142.088 254.594 142.088 249.936 142.088 248.678 141.949 248.072 141.343Z" fill="#0D0D0D" transform="matrix(1.00172 0 0 -1 430 618)"/><path d="M267.359 140.97C264.704 139.153 264.051 137.057 264.238 131.001 264.331 126.668 264.517 125.643 265.356 124.525 267.406 121.777 271.645 120.845 274.953 122.476 278.12 123.966 278.819 125.55 278.866 131.373 278.912 137.104 278.074 139.619 275.605 141.157 273.369 142.508 269.549 142.461 267.359 140.97ZM273.602 137.896C275.046 136.731 275.558 134.262 275.092 130.349 274.673 126.715 273.276 125.038 270.993 125.504 268.431 126.016 267.871 127.181 267.871 132.165 267.871 136.172 267.965 136.638 269.036 137.663 270.387 139.06 272.018 139.153 273.602 137.896Z" fill="#0D0D0D" transform="matrix(1.00172 0 0 -1 430 618)"/><path d="M283.804 141.483C283.105 140.644 282.639 131.979 283.012 126.901 283.292 123.267 283.478 122.429 284.223 122.056 285.667 121.264 286.972 122.988 286.972 125.69 286.972 128.066 287.857 129.883 288.789 129.324 289.068 129.137 289.72 128.206 290.28 127.274 291.491 125.038 293.401 122.429 294.1 121.963 295.031 121.404 296.615 121.544 297.221 122.289 297.64 122.802 297.407 123.547 296.01 126.156L294.239 129.37 295.73 131.606C296.941 133.47 297.221 134.308 297.221 136.405 297.221 138.641 297.035 139.107 295.637 140.504L294.053 142.088 289.161 142.088C285.807 142.088 284.13 141.902 283.804 141.483ZM292.469 138.082C294.612 136.591 293.401 133.796 290.373 133.377 288.835 133.19 288.276 133.33 287.484 134.122 286.273 135.333 286.227 136.684 287.438 137.896 288.556 139.014 291.025 139.107 292.469 138.082Z" fill="#0D0D0D" transform="matrix(1.00172 0 0 -1 430 618)"/><path d="M306.538 140.132C306.026 139.293 305.047 137.15 304.395 135.333 303.696 133.563 302.345 130.022 301.367 127.507 300.342 124.945 299.69 122.708 299.83 122.476 300.389 121.544 302.578 122.103 304.069 123.547 305.513 124.945 305.933 125.084 308.448 125.084 311.057 125.084 311.383 124.945 312.501 123.547 313.386 122.522 314.178 122.056 315.063 122.056 316.694 122.056 317.02 122.895 316.088 124.665 315.716 125.41 315.39 126.249 315.39 126.575 315.39 126.901 315.063 127.833 314.737 128.671 314.365 129.51 313.48 131.7 312.781 133.47 310.265 140.132 309.427 141.622 308.402 141.622 307.843 141.622 307.097 141.017 306.538 140.132ZM309.24 132.678C310.079 131.839 309.939 129.091 309.054 128.718 307.284 128.066 305.979 130.349 307.004 132.259 307.563 133.377 308.402 133.516 309.24 132.678Z" fill="#0D0D0D" transform="matrix(1.00172 0 0 -1 430 618)"/><path d="M29.6755 136.498C13.2305 136.218 14.4418 136.731 14.4418 130.255 14.4884 123.407 9.41044 124.153 55.1582 124.013 88.3743 123.92 94.5237 124.013 94.9896 124.572 95.3157 124.945 95.5486 127.227 95.6418 130.116 95.7349 133.982 95.5952 135.194 95.0361 135.753 94.4305 136.358 90.7036 136.451 68.9478 136.591 54.9719 136.684 37.3157 136.638 29.6755 136.498Z" fill="#0D0D0D" transform="matrix(1.00172 0 0 -1 430 618)"/><path d="M355.221 136.498 325.452 136.265 325.126 135.1C324.707 133.61 324.614 125.643 324.986 124.665 325.266 124.013 329.133 123.92 364.305 123.92 386.853 123.92 403.857 124.106 404.509 124.339 405.301 124.665 405.814 125.364 406.233 126.901 406.978 129.557 406.652 134.402 405.674 135.38 404.835 136.218 396.263 137.01 389.462 136.824 387.039 136.778 371.619 136.638 355.221 136.498Z" fill="#0D0D0D" transform="matrix(1.00172 0 0 -1 430 618)"/><path d="M50.4064 98.9028C48.6827 98.6699 48.1237 97.9245 46.4 93.6386 45.7012 91.9614 44.9558 90.2378 44.6763 89.7719 43.8843 88.3743 40.5301 80.4546 40.5301 79.9888 40.5301 79.6161 36.7566 70.3454 35.1727 66.8514 34.0546 64.4289 30.747 56.3695 30.747 56.1831 30.747 55.9036 24.2249 40.9494 22.408 37.0361 20.2185 32.3309 16.1189 22.4546 15.6064 20.6843 15.4667 20.0321 15.653 19.3799 16.0723 18.9141 16.7711 18.2618 19.1004 18.1687 36.5703 18.1687L56.3695 18.1687 57.1149 19.3333C57.7205 20.2651 57.8137 21.5229 57.6739 26.3213 57.5341 31.539 57.441 32.2843 56.649 32.89 55.9502 33.4024 54.0402 33.5422 48.8691 33.5422 43.139 33.5422 41.8811 33.6819 41.2289 34.2876 40.7631 34.7534 40.6233 35.359 40.8096 35.8249 40.996 36.2442 41.3687 37.502 41.6948 38.6667 42.0209 39.8313 43.0924 42.4402 44.0241 44.49 44.9558 46.5398 46.6795 50.5462 47.8442 53.3414 48.9622 56.1831 50.4064 59.5373 50.9655 60.7952 51.9438 62.8916 53.6675 67.1775 55.0651 71.0442 56.3695 74.6313 57.6739 74.5382 59.3976 70.7181 61.7269 65.4538 62.3325 64.1028 63.7301 60.5622 64.5221 58.6522 65.8731 55.2514 66.8048 53.0618 67.7365 50.8723 68.4819 48.7759 68.4819 48.4498 68.4819 48.1703 68.808 47.3317 69.1807 46.6795 70.0659 44.9558 75.1904 32.6104 77.1936 27.253 78.3582 24.1317 80.641 19.6129 81.4329 19.0072 81.8988 18.588 84.5542 18.355 90.3775 18.2618 97.412 18.1221 98.6699 18.2153 99.1823 18.8209 99.8811 19.6594 99.8345 19.8458 97.2257 25.8554 96.4803 27.6723 95.6884 29.5357 95.4554 30.0482 94.71 31.9582 91.7751 38.6667 88.3277 46.5863 86.3245 51.0586 84.5542 55.1582 84.3213 55.6707 81.1068 63.404 77.5197 71.8827 76.8675 73.3735 76.4016 74.3984 74.8177 78.2651 73.3735 81.992 71.8827 85.7189 70.5783 88.9799 70.392 89.2129 70.2056 89.4924 69.3671 91.449 68.4819 93.6386 67.6434 95.8281 66.6651 97.9245 66.2924 98.2972 65.7799 98.8562 64.2426 98.996 58.792 99.0426 55.0185 99.0892 51.245 98.996 50.4064 98.9028Z" fill="#0D0D0D" transform="matrix(1.00172 0 0 -1 430 618)"/><path d="M87.6289 98.5767C87.3494 98.204 87.2562 97.5984 87.4426 97.0859 87.8153 96.1542 94.4305 85.9518 96.0145 83.8554 96.4803 83.2032 98.3904 80.2683 100.254 77.3333 104.493 70.5317 108.22 64.755 110.363 61.5872 113.345 57.208 114.509 55.2514 115.953 52.3631L117.398 49.5213 117.398 34.6137C117.398 23.2466 117.537 19.5663 118.003 19.1936 118.283 18.9606 122.056 18.6345 126.342 18.4948 133.423 18.2618 134.262 18.3084 135.194 19.1004L136.265 19.939 136.312 35.0329C136.358 52.4096 135.753 49.8008 142.228 60.2361 146.7 67.457 147.073 68.0627 147.492 68.9012 148.005 69.8795 154.434 79.6161 156.437 82.4578 157.462 83.8554 158.72 85.9052 159.279 86.9767 159.838 88.0482 160.863 89.6321 161.561 90.4707 162.307 91.3092 163.658 93.3125 164.636 94.943 167.198 99.1823 167.105 99.2289 157.275 99.2289 146.141 99.2289 146.188 99.2289 143.952 95.8747 142.927 94.3373 142.088 92.9863 142.088 92.8932 142.088 92.6602 133.843 78.9639 131.467 75.2369 128.858 71.1839 127.693 69.8795 126.715 69.8795 125.876 69.8795 123.174 73.6996 119.727 79.6627 118.609 81.5727 116.512 85.1598 115.068 87.5823 113.624 90.0048 111.574 93.4988 110.503 95.3157 109.245 97.4586 108.22 98.7631 107.521 98.9494 106.916 99.0892 102.35 99.2289 97.3189 99.2289 90.1446 99.2289 88.0482 99.0892 87.6289 98.5767Z" fill="#0D0D0D" transform="matrix(1.00172 0 0 -1 430 618)"/><path d="M251.24 98.6699C250.681 98.3904 250.169 97.8313 250.076 97.412 249.982 96.9928 249.936 79.29 250.029 58 250.122 22.9671 250.215 19.2867 250.867 18.8209 251.427 18.4016 254.734 18.3084 262.887 18.4016 269.083 18.4948 281.754 18.5414 291.025 18.588 305.653 18.6345 307.982 18.7277 308.588 19.3799 309.194 19.939 309.333 21.29 309.333 26.3679 309.333 32.0048 309.24 32.7036 308.402 33.5422 307.516 34.4273 306.864 34.4739 289.161 34.4739 274.067 34.4739 270.667 34.5671 269.921 35.1261 269.083 35.7783 269.036 36.5237 269.176 61.8201 269.362 91.6819 269.129 98.1108 267.871 98.5301 266.334 98.996 252.265 99.1357 251.24 98.6699Z" fill="#0D0D0D" transform="matrix(1.00172 0 0 -1 430 618)"/><path d="M355.687 98.9028C353.73 98.3904 353.916 98.7631 348.373 85.7189 343.202 73.5598 341.664 69.8795 340.313 66.3855 339.661 64.6153 337.565 59.6771 335.748 55.4378 333.931 51.1984 331.741 46.0739 330.856 44.0241 330.018 41.9743 328.713 39.0394 328.014 37.502 327.269 35.9647 326.011 32.9365 325.173 30.747 324.334 28.5574 322.937 25.11 322.098 23.1068 320.887 20.3116 320.654 19.2867 321.027 18.7743 321.446 18.3084 325.406 18.1687 341.711 18.1687 365.982 18.1687 363.606 17.3301 363.606 25.902 363.606 33.5888 363.979 33.2626 354.848 33.449 350.842 33.5422 347.534 33.8217 347.208 34.1012 346.276 34.8466 346.463 35.7783 348.233 40.0643 349.118 42.2072 349.863 44.2104 349.863 44.49 349.91 44.7229 350.283 45.7944 350.795 46.8193 351.308 47.8442 351.68 48.9157 351.727 49.2418 351.727 49.5213 352.519 51.5245 353.544 53.6675 354.988 56.7888 358.761 65.4538 361.51 72.1157 362.162 73.653 363.653 73.4201 364.631 71.6498 365.423 70.1124 366.355 67.8297 367.054 65.6867 367.287 65.0345 367.986 63.3574 368.638 61.9598 369.29 60.5622 370.268 58.2329 370.827 56.8353 371.34 55.4378 371.992 53.8538 372.225 53.3414 373.017 51.5245 376.045 43.9775 376.884 41.6016 377.349 40.2506 378.048 38.4803 378.467 37.6418 378.84 36.8032 379.912 34.241 380.843 31.9116 384.291 23.5261 385.362 21.057 386.247 19.6594L387.133 18.1687 395.751 18.1687C406.093 18.1687 405.907 18.0755 403.904 23.0602 401.621 28.7904 399.245 34.6602 398.779 35.6386 398.546 36.151 397.055 39.5984 395.471 43.3253 393.888 47.0522 392.257 50.9189 391.791 51.9438 390.114 55.6707 388.903 58.5125 387.831 61.3076 387.272 62.845 386.247 65.2675 385.595 66.6651 383.778 70.6249 382.474 73.6996 382.474 74.0723 382.474 74.3052 381.775 75.9823 380.89 77.8924 380.005 79.7558 378.467 83.3896 377.443 85.9518 374.647 93.0329 372.132 98.2506 371.34 98.5767 370.408 98.996 356.945 99.2755 355.687 98.9028Z" fill="#0D0D0D" transform="matrix(1.00172 0 0 -1 430 618)"/><path d="M186.299 96.5735C185.74 95.3157 184.901 93.4988 184.435 92.4273 183.923 91.3558 183.55 90.2843 183.55 90.0514 183.55 89.8185 182.945 88.3277 182.153 86.7438 181.407 85.1598 180.755 83.7157 180.755 83.5759 180.755 83.343 177.587 75.7028 176.329 72.9076 174.047 67.7831 171.438 61.4008 171.438 60.9349 171.438 60.702 170.692 58.9317 169.807 57.0217 168.922 55.1116 168.177 53.388 168.177 53.2482 168.177 53.0618 167.012 50.2667 165.568 47.0522 164.124 43.8378 162.633 40.4835 162.214 39.5984 161.841 38.7133 161.329 37.5952 161.096 37.0827 160.863 36.6169 159.745 34.008 158.627 31.2594 157.508 28.5574 155.971 24.7839 155.179 22.8739 154.061 20.2651 153.828 19.2867 154.247 18.8209 154.667 18.3084 158.394 18.1687 174.419 18.1687 185.181 18.1687 194.265 18.355 194.591 18.5414 195.663 19.2402 196.129 21.5695 196.129 26.6008 196.129 33.6353 196.268 33.5422 187.79 33.5422 182.292 33.5422 181.174 33.6819 180.289 34.3807 179.264 35.2193 179.264 35.2193 180.056 37.9679 180.941 40.9494 181.128 41.4618 183.783 47.5181 184.715 49.7076 185.833 52.2233 186.206 53.1084 186.578 53.9936 187.137 55.3912 187.51 56.1365 187.836 56.9285 188.442 58.3727 188.814 59.3976 189.793 62.0064 192.308 68.249 193.613 71.1839 195.383 75.2369 196.641 75.004 198.458 70.1124 199.949 66.0594 202.138 60.5622 202.884 58.9317 205.539 53.0618 206.378 51.1518 206.378 50.9189 206.378 50.7791 206.89 49.4747 207.496 48.0305 208.148 46.5863 209.359 43.5582 210.244 41.2289 211.176 38.9462 212.527 35.592 213.319 33.8683 214.111 32.098 214.763 30.4209 214.763 30.0948 214.763 29.396 217.884 22.1285 218.863 20.498 220.26 18.2153 220.54 18.1687 229.018 18.1687 239.174 18.1687 239.361 18.3084 236.379 24.3647 235.727 25.7157 234.749 27.9518 234.236 29.3494 233.258 32.0048 232.186 34.5205 230.369 38.4337 229.205 40.996 225.198 50.4064 222.45 57.0683 220.167 62.5655 214.856 75.3301 214.064 77.1004 213.738 77.8924 212.247 81.3398 210.803 84.7871 209.359 88.2345 207.682 92.1478 207.169 93.4056 206.61 94.71 205.772 96.4337 205.306 97.2723L204.421 98.7631 195.849 98.7631 187.277 98.7631 186.299 96.5735Z" fill="#0D0D0D" transform="matrix(1.00172 0 0 -1 430 618)"/></g></svg>